<svg width="29" height="16" viewBox="0 0 29 16" fill="none" xmlns="http://www.w3.org/2000/svg">
<path d="M20.0981 6.51556C20.0981 9.53023 17.6543 11.9741 14.6396 11.9741C11.6249 11.9741 9.18104 9.53023 9.18104 6.51556C9.18104 3.50089 11.6249 1.05701 14.6396 1.05701C17.6543 1.05701 20.0981 3.50089 20.0981 6.51556Z" stroke="white" stroke-width="1.3"/>
<path d="M27.7844 8.03842C28.0391 8.24732 28.0271 8.64218 27.7584 8.83272C22.4524 12.5953 18.8943 14.6956 14.6398 14.6956C10.3589 14.6956 7.18713 13.2781 1.45403 8.81807C1.21033 8.62849 1.19762 8.26263 1.42628 8.05515C7.2541 2.76743 10.1187 0.83139 14.6398 0.83139C19.1459 0.83139 21.8692 3.18654 27.7844 8.03842Z" stroke="white" stroke-width="1.3"/>
</svg>
