<svg width="19" height="18" viewBox="0 0 19 18" fill="none" xmlns="http://www.w3.org/2000/svg">
<path d="M6.10809 1.33344L1.6801 1.33344C1.62488 1.33344 1.5801 1.37821 1.5801 1.43343L1.58008 17.1926C1.58008 17.2478 1.62485 17.2926 1.68008 17.2926H12.5193M6.10809 1.33344L6.10809 9.77018C6.10809 9.82541 6.15286 9.87018 6.20809 9.87018L11.0491 9.87018M6.10809 1.33344L13.7239 1.33344M13.7239 1.33344L17.4393 1.33344C17.4945 1.33344 17.5393 1.37821 17.5393 1.43344V17.1926C17.5393 17.2478 17.4945 17.2926 17.4393 17.2926H12.5193M13.7239 1.33344V5.73785C13.7239 5.79308 13.6792 5.83785 13.6239 5.83785L10.675 5.83785M6.24328 13.5908L12.4193 13.5908C12.4746 13.5908 12.5193 13.6356 12.5193 13.6908V17.2926" stroke="white" stroke-width="1.3"/>
</svg>
