<svg width="184" height="41" viewBox="0 0 184 41" fill="none" xmlns="http://www.w3.org/2000/svg">
<path d="M42.1454 0.384537L12.1026 12.4741V24.0802L42.1454 16.9087L68.9558 19.464V4.42252L42.1454 0.384537Z" fill="#C1C1C1"/>
<path d="M42.1454 0.384537L68.9557 4.35919V19.8257L42.1454 16.9087V0.384537Z" fill="white"/>
<path d="M68.956 22.914V40.3334L0.744141 40.3334V29.0381L42.3244 20.5764L68.956 22.914Z" fill="#C1C1C1"/>
<path d="M68.956 40.3334V22.914L42.3214 20.5773V40.3334H68.956Z" fill="white"/>
<path d="M91.8503 11.4811C91.1137 11.4811 90.4589 11.3434 89.886 11.0681C89.3131 10.7854 88.8629 10.3948 88.5355 9.89625C88.2082 9.39774 88.0445 8.81738 88.0445 8.15519C88.0445 7.50043 88.197 6.92751 88.5021 6.43644C88.8146 5.93794 89.2424 5.55103 89.7855 5.27574C90.3361 4.993 90.9648 4.85163 91.6717 4.85163C92.3785 4.85163 92.9886 5.0116 93.502 5.33154C94.0229 5.64404 94.4246 6.08674 94.7074 6.65966C94.9901 7.23257 95.1315 7.90593 95.1315 8.67974H89.5846C89.6367 8.89551 89.7223 9.0964 89.8413 9.28241C90.0497 9.62467 90.3473 9.88881 90.7342 10.0748C91.1285 10.2534 91.5936 10.3427 92.1293 10.3427C92.6129 10.3427 93.1077 10.2683 93.6136 10.1195C94.1196 9.96321 94.566 9.74744 94.9529 9.47214V10.5212C94.566 10.8189 94.0936 11.0532 93.5355 11.2244C92.9849 11.3955 92.4232 11.4811 91.8503 11.4811ZM93.6248 7.57483C93.5802 7.3293 93.502 7.1098 93.3904 6.91635C93.2119 6.61874 92.9738 6.3918 92.6761 6.23555C92.386 6.07186 92.04 5.99002 91.6382 5.99002C91.2141 5.99002 90.8421 6.07558 90.5221 6.24671C90.2096 6.41784 89.9641 6.65594 89.7855 6.961C89.6814 7.14701 89.607 7.35162 89.5623 7.57483H93.6248Z" fill="#C1C1C1"/>
<path d="M80.1837 2.73111H81.6346V6.29136C81.9099 5.83005 82.2633 5.47663 82.6949 5.2311C83.1264 4.97812 83.61 4.85163 84.1458 4.85163C84.741 4.85163 85.2469 4.97068 85.6636 5.20877C86.0803 5.44687 86.3965 5.78913 86.6123 6.23555C86.8355 6.67454 86.9471 7.20653 86.9471 7.83153V11.3248H85.4962V8.0659C85.4962 7.4037 85.3399 6.90519 85.0274 6.57037C84.7224 6.22811 84.2722 6.05698 83.677 6.05698C83.2678 6.05698 82.9069 6.14999 82.5944 6.336C82.2894 6.51457 82.0513 6.76754 81.8801 7.09492C81.7165 7.4223 81.6346 7.80548 81.6346 8.24447V11.3248H80.1837V2.73111Z" fill="#C1C1C1"/>
<path d="M73.2788 6.12395V5.46547L74.6292 5.11949L75.2319 3.35611H76.0801V5.00788H79.0153V6.12395H76.0801V8.85831C76.0801 9.38658 76.1917 9.7586 76.4149 9.97437C76.6456 10.1827 77.0176 10.2869 77.531 10.2869C77.8584 10.2869 78.1485 10.2534 78.4015 10.1864C78.6545 10.112 78.8963 10.0079 79.127 9.87392V11.0681C78.9335 11.1648 78.6582 11.2578 78.3011 11.3471C77.9514 11.4364 77.5905 11.4811 77.2185 11.4811C76.6009 11.4811 76.1024 11.3806 75.7229 11.1797C75.3435 10.9714 75.0645 10.6887 74.8859 10.3315C74.7148 9.96693 74.6292 9.55027 74.6292 9.08152V6.12395H73.2788Z" fill="#C1C1C1"/>
<path d="M159.648 32.236H166.169C166.252 32.7099 166.437 33.1425 166.726 33.534C167.035 33.9255 167.437 34.2655 167.931 34.5539C168.426 34.8218 169.013 35.0278 169.693 35.1721C170.393 35.3163 171.166 35.3884 172.011 35.3884C172.794 35.3884 173.494 35.3369 174.112 35.2339C174.73 35.1309 175.256 34.9866 175.689 34.8012C176.142 34.5951 176.482 34.3376 176.708 34.0285C176.956 33.7195 177.079 33.3795 177.079 33.0086C177.079 32.7202 177.018 32.4626 176.894 32.236C176.77 31.9887 176.564 31.7827 176.276 31.6178C175.987 31.4324 175.606 31.2882 175.132 31.1851C174.658 31.0821 174.061 30.9894 173.34 30.907L169.013 30.5052C167.406 30.361 166.025 30.1137 164.871 29.7634C163.718 29.3926 162.77 28.9187 162.028 28.3417C161.307 27.7442 160.771 27.054 160.421 26.271C160.071 25.4881 159.895 24.6021 159.895 23.6131C159.895 22.418 160.163 21.3569 160.699 20.4297C161.255 19.5025 162.018 18.7299 162.986 18.1117C163.975 17.473 165.16 16.9888 166.54 16.6591C167.941 16.3295 169.497 16.1646 171.207 16.1646C172.897 16.1646 174.442 16.3501 175.843 16.7209C177.244 17.0712 178.45 17.5863 179.459 18.2663C180.489 18.9256 181.303 19.7292 181.901 20.677C182.519 21.6041 182.859 22.6447 182.921 23.7985H176.43C176.369 23.3864 176.204 23.0155 175.936 22.6859C175.668 22.3562 175.307 22.078 174.854 21.8514C174.401 21.6041 173.855 21.4187 173.216 21.2951C172.577 21.1715 171.866 21.1096 171.084 21.1096C170.362 21.1096 169.703 21.1612 169.106 21.2642C168.529 21.3466 168.044 21.4908 167.653 21.6969C167.261 21.8823 166.952 22.1193 166.726 22.4077C166.499 22.6756 166.386 22.9949 166.386 23.3658C166.386 23.9015 166.633 24.3342 167.128 24.6639C167.643 24.9936 168.56 25.2202 169.878 25.3438L174.483 25.8074C176.152 25.9516 177.553 26.1886 178.687 26.5183C179.84 26.8273 180.768 27.2497 181.468 27.7854C182.189 28.3005 182.715 28.929 183.044 29.6707C183.374 30.4125 183.539 31.2779 183.539 32.2669C183.539 33.4825 183.261 34.5951 182.704 35.6048C182.148 36.5938 181.355 37.4385 180.325 38.1391C179.315 38.8396 178.089 39.3856 176.647 39.7771C175.225 40.148 173.638 40.3334 171.887 40.3334C170.074 40.3334 168.426 40.148 166.942 39.7771C165.459 39.3856 164.181 38.8396 163.11 38.1391C162.059 37.4179 161.224 36.5629 160.606 35.5738C160.009 34.5642 159.689 33.4516 159.648 32.236Z" fill="white"/>
<path d="M138.109 16.6591V29.4853C138.109 30.2682 138.222 30.9791 138.449 31.6178C138.675 32.2566 139.005 32.8026 139.438 33.2559C139.891 33.6886 140.447 34.0285 141.106 34.2758C141.786 34.5024 142.559 34.6157 143.424 34.6157C144.31 34.6157 145.073 34.5024 145.712 34.2758C146.371 34.0285 146.917 33.6886 147.35 33.2559C147.803 32.8026 148.143 32.2566 148.369 31.6178C148.596 30.9791 148.709 30.2682 148.709 29.4853V16.6591H155.138V29.7943C155.138 31.3603 154.86 32.8026 154.304 34.1212C153.747 35.4193 152.954 36.5319 151.924 37.4591C150.894 38.3657 149.657 39.0766 148.215 39.5917C146.773 40.0862 145.176 40.3334 143.424 40.3334C141.673 40.3334 140.076 40.0862 138.634 39.5917C137.192 39.0766 135.955 38.3657 134.925 37.4591C133.916 36.5319 133.122 35.4193 132.545 34.1212C131.989 32.8026 131.711 31.3603 131.711 29.7943V16.6591H138.109Z" fill="white"/>
<path d="M108.636 31.4942V26.7964H117.073C118.083 26.7964 118.876 26.5595 119.453 26.0856C120.051 25.6117 120.349 24.9523 120.349 24.1076C120.349 23.2422 120.051 22.5829 119.453 22.1296C118.876 21.6557 118.083 21.4187 117.073 21.4187H107.74L110.614 18.359V39.8389H104.216V16.6591H117.97C119.309 16.6591 120.514 16.8446 121.586 17.2154C122.678 17.5657 123.605 18.0705 124.367 18.7299C125.15 19.3686 125.748 20.1515 126.16 21.0787C126.593 21.9853 126.809 22.9949 126.809 24.1076C126.809 25.2202 126.593 26.2298 126.16 27.1364C125.748 28.043 125.15 28.8156 124.367 29.4544C123.605 30.0931 122.678 30.5979 121.586 30.9688C120.514 31.3191 119.309 31.4942 117.97 31.4942H108.636ZM120.195 39.8389L112.097 28.9908H119.299L127.612 39.8389H120.195Z" fill="white"/>
<path d="M91.0869 28.4963L91.6123 27.2909C92.9516 27.3115 94.1157 27.4764 95.1047 27.7854C96.0937 28.0945 96.9179 28.5169 97.5772 29.0526C98.2366 29.5677 98.7208 30.1858 99.0298 30.907C99.3595 31.6281 99.5243 32.4317 99.5243 33.3177C99.5243 34.2655 99.3595 35.1412 99.0298 35.9447C98.7001 36.7277 98.2057 37.4076 97.5463 37.9845C96.9076 38.5615 96.104 39.0148 95.1356 39.3444C94.1878 39.6741 93.0752 39.8389 91.7977 39.8389H74.6756V16.6591H91.1796C93.343 16.6591 95.012 17.1639 96.1864 18.1735C97.3815 19.1625 97.979 20.543 97.979 22.315C97.979 23.0361 97.8554 23.747 97.6081 24.4475C97.3609 25.1481 96.9591 25.7765 96.4028 26.3328C95.8671 26.8891 95.1562 27.363 94.2702 27.7545C93.4049 28.1254 92.3437 28.3727 91.0869 28.4963ZM81.0114 18.1426V38.3554L78.5389 35.3575H90.067C90.9942 35.3575 91.7153 35.1412 92.2304 34.7085C92.7455 34.2552 93.0031 33.6164 93.0031 32.7923C93.0031 31.9887 92.7249 31.35 92.1686 30.8761C91.6123 30.3816 90.7881 30.1343 89.6961 30.1343H80.1769V25.7456H88.8307C89.2016 25.7456 89.5416 25.6941 89.8506 25.5911C90.1803 25.4674 90.4687 25.3026 90.716 25.0966C90.9632 24.8699 91.1487 24.6021 91.2723 24.293C91.3959 23.9839 91.4578 23.644 91.4578 23.2731C91.4578 22.655 91.2414 22.1502 90.8087 21.7587C90.376 21.3466 89.7579 21.1406 88.9543 21.1406H78.5698L81.0114 18.1426Z" fill="white"/>
</svg>
