<svg width="160" height="35" viewBox="0 0 160 35" fill="none" xmlns="http://www.w3.org/2000/svg">
<path d="M36.4468 0.147339L10.3266 10.6584V20.7492L36.4468 14.514L59.7566 16.7357V3.6581L36.4468 0.147339Z" fill="#61B76D"/>
<path d="M36.4468 0.147339L59.7566 3.60303V17.0501L36.4468 14.514V0.147339Z" fill="white"/>
<path d="M59.7568 19.7352V34.8802L0.451172 34.8802V25.0597L36.6024 17.7028L59.7568 19.7352Z" fill="#61B76D"/>
<path d="M59.7568 34.8802V19.7352L36.5998 17.7036V34.8802H59.7568Z" fill="white"/>
<path d="M79.6618 9.79502C79.0214 9.79502 78.4522 9.67535 77.954 9.436C77.4559 9.19017 77.0646 8.85055 76.7799 8.41713C76.4953 7.98371 76.353 7.47914 76.353 6.9034C76.353 6.33413 76.4856 5.83602 76.7508 5.40907C77.0225 4.97565 77.3945 4.63926 77.8667 4.39991C78.3454 4.15409 78.892 4.03118 79.5066 4.03118C80.1211 4.03118 80.6516 4.17026 81.098 4.44843C81.5508 4.72012 81.9001 5.10503 82.1459 5.60314C82.3917 6.10125 82.5147 6.68669 82.5147 7.35946H77.692C77.7373 7.54706 77.8117 7.72172 77.9152 7.88345C78.0964 8.18102 78.3551 8.41067 78.6915 8.57239C79.0344 8.72764 79.4387 8.80527 79.9044 8.80527C80.3249 8.80527 80.7551 8.74058 81.195 8.6112C81.6349 8.47535 82.023 8.28776 82.3594 8.0484V8.96053C82.023 9.21929 81.6122 9.42306 81.1271 9.57184C80.6484 9.72063 80.16 9.79502 79.6618 9.79502ZM81.2047 6.39882C81.1659 6.18534 81.098 5.99451 81.0009 5.82632C80.8457 5.56756 80.6387 5.37025 80.3799 5.23441C80.1276 5.09209 79.8268 5.02093 79.4775 5.02093C79.1088 5.02093 78.7853 5.09532 78.5071 5.24411C78.2354 5.3929 78.022 5.5999 77.8667 5.86513C77.7761 6.02685 77.7115 6.20475 77.6726 6.39882H81.2047Z" fill="white"/>
<path d="M69.5186 2.18753H70.78V5.28292C71.0194 4.88185 71.3266 4.57457 71.7018 4.3611C72.077 4.14115 72.4975 4.03118 72.9633 4.03118C73.4808 4.03118 73.9207 4.13468 74.283 4.34169C74.6452 4.5487 74.9202 4.84627 75.1077 5.23441C75.3018 5.61608 75.3988 6.07861 75.3988 6.622V9.65918H74.1374V6.82577C74.1374 6.25003 74.0016 5.81661 73.7299 5.52551C73.4646 5.22794 73.0733 5.07915 72.5557 5.07915C72.2 5.07915 71.8862 5.16001 71.6145 5.32174C71.3493 5.47699 71.1423 5.69694 70.9935 5.98157C70.8512 6.26621 70.78 6.59936 70.78 6.98103V9.65918H69.5186V2.18753Z" fill="white"/>
<path d="M63.5152 5.13737V4.56487L64.6893 4.26406L65.2133 2.73092H65.9507V4.16703H68.5027V5.13737H65.9507V7.51471C65.9507 7.97401 66.0478 8.29746 66.2418 8.48506C66.4424 8.66619 66.7658 8.75676 67.2122 8.75676C67.4968 8.75676 67.7491 8.72764 67.9691 8.66942C68.189 8.60473 68.3992 8.51417 68.5998 8.39773V9.436C68.4316 9.52009 68.1922 9.60095 67.8817 9.67858C67.5777 9.75621 67.2639 9.79502 66.9405 9.79502C66.4036 9.79502 65.9701 9.70769 65.6402 9.53303C65.3103 9.3519 65.0677 9.10608 64.9125 8.79557C64.7637 8.47859 64.6893 8.11633 64.6893 7.70878V5.13737H63.5152Z" fill="white"/>
<path d="M138.608 27.84H144.277C144.349 28.252 144.51 28.6282 144.761 28.9686C145.03 29.309 145.379 29.6046 145.809 29.8553C146.239 30.0882 146.75 30.2674 147.341 30.3928C147.95 30.5182 148.622 30.5809 149.356 30.5809C150.037 30.5809 150.646 30.5361 151.183 30.4465C151.721 30.3569 152.177 30.2315 152.554 30.0703C152.948 29.8912 153.243 29.6673 153.44 29.3985C153.655 29.1298 153.763 28.8342 153.763 28.5118C153.763 28.261 153.709 28.0371 153.602 27.84C153.494 27.625 153.315 27.4459 153.064 27.3026C152.813 27.1414 152.482 27.016 152.07 26.9264C151.658 26.8368 151.138 26.7562 150.511 26.6846L146.75 26.3352C145.352 26.2098 144.152 25.9949 143.149 25.6903C142.146 25.3679 141.322 24.9559 140.677 24.4543C140.05 23.9348 139.584 23.3346 139.279 22.6539C138.975 21.9732 138.823 21.2029 138.823 20.343C138.823 19.304 139.055 18.3814 139.521 17.5753C140.005 16.7691 140.668 16.0974 141.51 15.5599C142.37 15.0046 143.4 14.5836 144.6 14.297C145.818 14.0104 147.17 13.8671 148.657 13.8671C150.126 13.8671 151.47 14.0283 152.688 14.3507C153.906 14.6553 154.954 15.1031 155.832 15.6943C156.728 16.2675 157.435 16.9662 157.955 17.7902C158.492 18.5964 158.788 19.501 158.842 20.5042H153.199C153.145 20.1459 153.002 19.8235 152.769 19.5369C152.536 19.2502 152.222 19.0084 151.828 18.8113C151.434 18.5964 150.959 18.4351 150.404 18.3277C149.849 18.2202 149.231 18.1664 148.55 18.1664C147.923 18.1664 147.35 18.2112 146.83 18.3008C146.329 18.3724 145.908 18.4978 145.567 18.677C145.227 18.8382 144.958 19.0442 144.761 19.295C144.564 19.5279 144.465 19.8056 144.465 20.128C144.465 20.5938 144.68 20.97 145.11 21.2566C145.558 21.5432 146.355 21.7403 147.502 21.8478L151.506 22.2508C152.957 22.3762 154.175 22.5822 155.16 22.8689C156.163 23.1376 156.969 23.5048 157.579 23.9706C158.206 24.4184 158.662 24.9648 158.949 25.6097C159.236 26.2546 159.379 27.007 159.379 27.8669C159.379 28.9238 159.137 29.8912 158.653 30.769C158.17 31.6288 157.48 32.3633 156.584 32.9724C155.707 33.5815 154.641 34.0562 153.387 34.3966C152.151 34.719 150.771 34.8802 149.249 34.8802C147.672 34.8802 146.239 34.719 144.949 34.3966C143.659 34.0562 142.549 33.5815 141.617 32.9724C140.704 32.3454 139.978 31.602 139.441 30.7421C138.921 29.8643 138.643 28.8969 138.608 27.84Z" fill="#61B770"/>
<path d="M119.88 14.297V25.4485C119.88 26.1292 119.979 26.7473 120.176 27.3026C120.373 27.8579 120.66 28.3327 121.036 28.7268C121.43 29.103 121.914 29.3985 122.487 29.6135C123.078 29.8106 123.75 29.9091 124.502 29.9091C125.272 29.9091 125.935 29.8106 126.491 29.6135C127.064 29.3985 127.539 29.103 127.915 28.7268C128.309 28.3327 128.604 27.8579 128.802 27.3026C128.999 26.7473 129.097 26.1292 129.097 25.4485V14.297H134.686V25.7172C134.686 27.0787 134.444 28.3327 133.961 29.4792C133.477 30.6077 132.787 31.5751 131.892 32.3812C130.996 33.1694 129.921 33.7875 128.667 34.2353C127.413 34.6653 126.025 34.8802 124.502 34.8802C122.979 34.8802 121.591 34.6653 120.337 34.2353C119.083 33.7875 118.008 33.1694 117.113 32.3812C116.235 31.5751 115.545 30.6077 115.044 29.4792C114.56 28.3327 114.318 27.0787 114.318 25.7172V14.297H119.88Z" fill="#61B770"/>
<path d="M94.2559 27.1951V23.1107H101.592C102.469 23.1107 103.159 22.9047 103.661 22.4927C104.18 22.0807 104.44 21.5074 104.44 20.7729C104.44 20.0205 104.18 19.4473 103.661 19.0532C103.159 18.6412 102.469 18.4351 101.592 18.4351H93.4766L95.9756 15.7749V34.4503H90.4133V14.297H102.371C103.535 14.297 104.583 14.4582 105.515 14.7807C106.464 15.0852 107.27 15.5241 107.933 16.0974C108.614 16.6527 109.133 17.3334 109.492 18.1396C109.868 18.9278 110.056 19.8056 110.056 20.7729C110.056 21.7403 109.868 22.6181 109.492 23.4063C109.133 24.1945 108.614 24.8663 107.933 25.4216C107.27 25.977 106.464 26.4158 105.515 26.7383C104.583 27.0428 103.535 27.1951 102.371 27.1951H94.2559ZM104.306 34.4503L97.2654 25.0186H103.526L110.755 34.4503H104.306Z" fill="#61B770"/>
<path d="M78.9981 24.5886L79.4549 23.5406C80.6194 23.5586 81.6315 23.7019 82.4914 23.9706C83.3512 24.2393 84.0678 24.6065 84.6411 25.0723C85.2143 25.5201 85.6353 26.0576 85.904 26.6846C86.1906 27.3116 86.3339 28.0102 86.3339 28.7805C86.3339 29.6046 86.1906 30.3659 85.904 31.0645C85.6174 31.7453 85.1874 32.3364 84.6142 32.838C84.0589 33.3396 83.3602 33.7337 82.5182 34.0204C81.6942 34.307 80.7268 34.4503 79.6162 34.4503H64.7296V14.297H79.0787C80.9597 14.297 82.4108 14.7359 83.4319 15.6137C84.4709 16.4736 84.9904 17.6738 84.9904 19.2144C84.9904 19.8414 84.8829 20.4594 84.6679 21.0685C84.453 21.6776 84.1036 22.224 83.62 22.7076C83.1542 23.1913 82.5362 23.6033 81.7659 23.9437C81.0135 24.2662 80.0909 24.4811 78.9981 24.5886ZM70.2382 15.5868V33.1605L68.0885 30.554H78.1114C78.9175 30.554 79.5445 30.3659 79.9924 29.9897C80.4402 29.5956 80.6641 29.0403 80.6641 28.3237C80.6641 27.625 80.4223 27.0697 79.9386 26.6577C79.4549 26.2278 78.7384 26.0128 77.7889 26.0128H69.5126V22.1971H77.0365C77.359 22.1971 77.6546 22.1523 77.9233 22.0627C78.2099 21.9553 78.4607 21.8119 78.6757 21.6328C78.8906 21.4357 79.0519 21.2029 79.1594 20.9342C79.2668 20.6654 79.3206 20.3699 79.3206 20.0474C79.3206 19.51 79.1325 19.0711 78.7563 18.7307C78.3801 18.3724 77.8427 18.1933 77.144 18.1933H68.1154L70.2382 15.5868Z" fill="#61B770"/>
</svg>
