<svg width="141" height="89" viewBox="0 0 141 89" fill="none" xmlns="http://www.w3.org/2000/svg">
<path d="M61.2323 23.4344L6.23994 53.4684V88.4647H0.268066V49.946L58.3614 18.2173L61.2323 23.4344Z" fill="white"/>
<path d="M51.0248 6.12097L134.47 52.9518V88.4651H140.442V49.4759L53.9558 0.937012L51.0248 6.12097Z" fill="white"/>
<path d="M110.571 54.5201C109.45 54.5201 108.46 54.2901 107.603 53.8303C106.759 53.3705 106.1 52.7398 105.625 51.9384C105.163 51.137 104.933 50.2173 104.933 49.1794C104.933 48.1415 105.157 47.2218 105.605 46.4204C106.067 45.6189 106.693 44.9949 107.484 44.5482C108.289 44.0883 109.192 43.8584 110.195 43.8584C111.21 43.8584 112.107 44.0818 112.885 44.5285C113.663 44.9752 114.27 45.6058 114.705 46.4204C115.153 47.2218 115.378 48.1612 115.378 49.2385C115.378 49.3173 115.371 49.4093 115.358 49.5144C115.358 49.6195 115.351 49.7181 115.338 49.81H106.416V48.4502H114.349L113.577 48.9232C113.591 48.2531 113.452 47.6554 113.162 47.1298C112.872 46.6043 112.47 46.197 111.955 45.908C111.454 45.6058 110.867 45.4547 110.195 45.4547C109.535 45.4547 108.948 45.6058 108.434 45.908C107.92 46.197 107.517 46.6109 107.227 47.1495C106.937 47.6751 106.792 48.2794 106.792 48.9626V49.2779C106.792 49.9742 106.95 50.5983 107.267 51.1501C107.597 51.6888 108.052 52.1092 108.632 52.4114C109.212 52.7136 109.878 52.8646 110.63 52.8646C111.25 52.8646 111.81 52.7595 112.311 52.5493C112.826 52.3391 113.274 52.0238 113.657 51.6034L114.705 52.8252C114.23 53.377 113.637 53.7975 112.925 54.0865C112.226 54.3755 111.441 54.5201 110.571 54.5201Z" fill="white"/>
<path d="M92.4367 54.4018V39.779H94.3358V46.7751L93.9599 46.0262C94.3028 45.343 94.8304 44.811 95.5425 44.4299C96.2547 44.0489 97.0856 43.8584 98.0351 43.8584C98.8923 43.8584 99.6441 44.0227 100.29 44.3511C100.95 44.6796 101.464 45.1788 101.833 45.8489C102.203 46.5189 102.387 47.3663 102.387 48.3911V54.4018H100.488V48.6079C100.488 47.5962 100.238 46.8342 99.7364 46.3218C99.2484 45.8094 98.5561 45.5532 97.6592 45.5532C96.9866 45.5532 96.3998 45.6846 95.8986 45.9474C95.3975 46.2102 95.0084 46.5977 94.7315 47.1101C94.4677 47.6225 94.3358 48.2597 94.3358 49.0217V54.4018H92.4367Z" fill="white"/>
<path d="M83.8528 54.4018V42.3213H79.1051V40.6067H90.5591V42.3213H85.8113V54.4018H83.8528Z" fill="white"/>
<path d="M113.696 88.8931C111.581 88.8931 109.555 88.6172 107.616 88.0654C105.677 87.4885 104.116 86.7486 102.933 85.8456L105.01 81.2556C106.143 82.0582 107.478 82.7229 109.013 83.2496C110.574 83.7513 112.148 84.0021 113.734 84.0021C114.943 84.0021 115.912 83.8892 116.642 83.6635C117.398 83.4127 117.951 83.0741 118.304 82.6477C118.656 82.2213 118.833 81.7322 118.833 81.1804C118.833 80.4781 118.556 79.9263 118.002 79.525C117.448 79.0986 116.718 78.76 115.811 78.5091C114.905 78.2332 113.898 77.9824 112.79 77.7567C111.707 77.5059 110.612 77.2049 109.504 76.8537C108.422 76.5026 107.427 76.0511 106.521 75.4993C105.614 74.9475 104.872 74.2201 104.293 73.3172C103.739 72.4142 103.462 71.2605 103.462 69.8559C103.462 68.3509 103.865 66.984 104.67 65.755C105.501 64.5009 106.735 63.5101 108.371 62.7827C110.033 62.0303 112.11 61.6541 114.603 61.6541C116.265 61.6541 117.901 61.8547 119.512 62.256C121.124 62.6323 122.546 63.2091 123.78 63.9867L121.892 68.6143C120.658 67.912 119.424 67.3978 118.191 67.0718C116.957 66.7206 115.748 66.545 114.565 66.545C113.382 66.545 112.412 66.683 111.657 66.9589C110.902 67.2348 110.36 67.5985 110.033 68.05C109.706 68.4764 109.542 68.978 109.542 69.5549C109.542 70.2321 109.819 70.7839 110.373 71.2103C110.927 71.6116 111.657 71.9377 112.563 72.1885C113.47 72.4393 114.464 72.6901 115.547 72.9409C116.655 73.1918 117.75 73.4802 118.833 73.8063C119.94 74.1323 120.948 74.5713 121.854 75.1231C122.76 75.6749 123.49 76.4023 124.044 77.3052C124.623 78.2082 124.913 79.3494 124.913 80.7289C124.913 82.2087 124.498 83.5632 123.667 84.7922C122.836 86.0212 121.59 87.0119 119.928 87.7644C118.291 88.5168 116.214 88.8931 113.696 88.8931Z" fill="white"/>
<path d="M86.9923 88.8931C83.2408 88.8931 80.3076 87.8522 78.1927 85.7704C76.0778 83.6886 75.0204 80.7164 75.0204 76.8537V62.1056H81.1385V76.628C81.1385 79.1362 81.6546 80.9421 82.6869 82.0457C83.7192 83.1493 85.1669 83.7011 87.0301 83.7011C88.8932 83.7011 90.3409 83.1493 91.3732 82.0457C92.4055 80.9421 92.9216 79.1362 92.9216 76.628V62.1056H98.9642V76.8537C98.9642 80.7164 97.9068 83.6886 95.7919 85.7704C93.677 87.8522 90.7438 88.8931 86.9923 88.8931Z" fill="white"/>
<path d="M47.4754 88.4416V62.1056H58.7675C62.4435 62.1056 65.3011 62.9583 67.3405 64.6639C69.3799 66.3444 70.3996 68.677 70.3996 71.6618C70.3996 73.6182 69.9338 75.3112 69.0022 76.7409C68.0707 78.1455 66.7488 79.224 65.0368 79.9764C63.3247 80.7289 61.2853 81.1051 58.9186 81.1051H50.8744L53.5935 78.4339V88.4416H47.4754ZM64.2814 88.4416L57.6723 78.8854H64.2059L70.8905 88.4416H64.2814ZM53.5935 79.1111L50.8744 76.2518H58.5787C60.467 76.2518 61.877 75.8505 62.8085 75.0478C63.7401 74.2201 64.2059 73.0915 64.2059 71.6618C64.2059 70.207 63.7401 69.0783 62.8085 68.2757C61.877 67.4731 60.467 67.0718 58.5787 67.0718H50.8744L53.5935 64.1748V79.1111Z" fill="white"/>
<path d="M18.5974 88.4416V62.1056H31.5135C34.8369 62.1056 37.3295 62.7326 38.9912 63.9867C40.6781 65.2408 41.5216 66.8962 41.5216 68.9529C41.5216 70.3324 41.1817 71.5364 40.5019 72.5647C39.8221 73.568 38.8905 74.3456 37.7072 74.8974C36.5238 75.4492 35.1642 75.7251 33.6284 75.7251L34.346 74.1825C36.0077 74.1825 37.4806 74.4584 38.7646 75.0102C40.0487 75.5369 41.0432 76.327 41.7482 77.3805C42.4783 78.4339 42.8434 79.7256 42.8434 81.2556C42.8434 83.513 41.9496 85.2813 40.162 86.5605C38.3744 87.8146 35.7433 88.4416 32.2688 88.4416H18.5974ZM24.6778 83.8516H31.8156C33.4018 83.8516 34.5977 83.6008 35.4034 83.0992C36.2343 82.5724 36.6497 81.7447 36.6497 80.616C36.6497 79.5124 36.2343 78.6973 35.4034 78.1706C34.5977 77.6188 33.4018 77.3428 31.8156 77.3428H24.2246V72.9033H30.7581C32.2436 72.9033 33.3766 72.6525 34.1571 72.1509C34.9628 71.6242 35.3657 70.8341 35.3657 69.7806C35.3657 68.7523 34.9628 67.9873 34.1571 67.4856C33.3766 66.9589 32.2436 66.6955 30.7581 66.6955H24.6778V83.8516Z" fill="white"/>
</svg>
