<svg width="23" height="17" viewBox="0 0 23 17" fill="none" xmlns="http://www.w3.org/2000/svg">
<path d="M0.523389 13.231C0.8133 13.5363 1.22287 13.7271 1.67716 13.7271H2.17714L1.51987 15.7184C1.45073 15.9279 1.2551 16.0694 1.03448 16.0694C0.752159 16.0694 0.523409 15.8406 0.523389 15.5583V13.231Z" fill="white"/>
<path d="M22.3103 15.5583C22.3103 15.8406 22.0815 16.0694 21.7992 16.0694C21.5786 16.0694 21.3829 15.9279 21.3138 15.7184L20.6565 13.7271H21.3027C21.6851 13.7271 22.0359 13.592 22.3103 13.3671V15.5583Z" fill="white"/>
<path d="M22.5752 12.1359C22.5752 12.4508 22.4605 12.7389 22.271 12.9612C22.2274 13.0124 22.1795 13.0598 22.1283 13.1035C22.1231 13.108 22.118 13.1127 22.1127 13.1171C21.9083 13.286 21.6503 13.3927 21.368 13.407L21.3027 13.4091H1.67716L1.61154 13.407C1.32773 13.3926 1.06823 13.2855 0.863304 13.115C0.860911 13.113 0.858738 13.1108 0.85636 13.1087C0.801233 13.0622 0.750106 13.0111 0.703589 12.956C0.677036 12.9245 0.652037 12.8917 0.628593 12.8577C0.587198 12.7977 0.551017 12.7339 0.520264 12.6671C0.500386 12.6239 0.482851 12.5794 0.467836 12.5338C0.433174 12.4284 0.411544 12.317 0.405686 12.2015L0.404297 12.1362V10.0499H22.5752V12.1359Z" fill="white"/>
<path d="M21.368 7.59719L21.4308 7.60205C21.4408 7.60305 21.4507 7.60429 21.4607 7.60552C22.0889 7.68347 22.5751 8.21903 22.5752 8.86831V9.73147H0.404297V8.86831C0.404313 8.74505 0.421591 8.62585 0.454295 8.51312C0.455837 8.5078 0.457198 8.50244 0.458808 8.49715C0.468971 8.46376 0.480759 8.43105 0.493529 8.39889C0.503969 8.3726 0.515449 8.34685 0.527555 8.32146C0.541472 8.29227 0.556321 8.26362 0.572345 8.2357C0.766006 7.89841 1.10955 7.6582 1.51223 7.60621C1.54493 7.60199 1.57811 7.59888 1.61154 7.59719L1.67716 7.59545H21.3023L21.368 7.59719Z" fill="white"/>
<path d="M2.0511 0.72249C2.22678 0.722565 2.36914 0.86518 2.36914 1.04088V7.27741H1.73271V1.04088C1.73271 0.865133 1.87535 0.72249 2.0511 0.72249Z" fill="white"/>
<path fill-rule="evenodd" clip-rule="evenodd" d="M14.1311 0.0860596C14.6896 0.0860712 15.2383 0.233185 15.722 0.51243L16.7529 1.10754C17.2366 1.38679 17.7853 1.5339 18.3438 1.53391H20.1736V7.27741H2.80558V1.53391H4.63536C5.19389 1.5339 5.74256 1.38679 6.22626 1.10754L7.25712 0.51243C7.74082 0.233185 8.2895 0.0860713 8.84802 0.0860596H14.1311ZM4.80931 3.09982C4.45785 3.09985 4.17288 3.38478 4.17288 3.73625V6.32572C4.17288 6.67718 4.45785 6.96211 4.80931 6.96215H10.5223C10.8737 6.96215 11.1587 6.67721 11.1587 6.32572V3.73625C11.1587 3.38476 10.8737 3.09982 10.5223 3.09982H4.80931ZM12.7996 3.09982C12.4481 3.09982 12.1632 3.38476 12.1632 3.73625V6.32572C12.1632 6.67721 12.4481 6.96215 12.7996 6.96215H18.5125C18.864 6.96211 19.149 6.67718 19.149 6.32572V3.73625C19.149 3.38478 18.864 3.09985 18.5125 3.09982H12.7996Z" fill="white"/>
<path d="M20.928 0.72249C21.1038 0.72249 21.2464 0.865133 21.2464 1.04088V7.27741H20.61V1.04088C20.61 0.86518 20.7524 0.722565 20.928 0.72249Z" fill="white"/>
</svg>
