<svg width="23" height="27" viewBox="0 0 23 27" fill="none" xmlns="http://www.w3.org/2000/svg">
<path d="M7.52998 9.16428C7.47073 9.16428 7.4227 9.21231 7.4227 9.27156V9.61516C7.4227 9.67441 7.47073 9.72244 7.52998 9.72244C7.58923 9.72244 7.63726 9.67441 7.63726 9.61516V9.27156C7.63726 9.21231 7.58923 9.16428 7.52998 9.16428ZM7.52998 6.93119C7.47073 6.93119 7.4227 6.97922 7.4227 7.03847V7.94024C7.4227 7.99949 7.47073 8.04752 7.52998 8.04752C7.58923 8.04752 7.63726 7.99949 7.63726 7.94024V7.03847C7.63726 6.97922 7.58923 6.93119 7.52998 6.93119ZM7.52998 5.25626C7.47073 5.25626 7.4227 5.3043 7.4227 5.36355V5.70715C7.4227 5.7664 7.47073 5.81443 7.52998 5.81443C7.58923 5.81443 7.63726 5.7664 7.63726 5.70715V5.36355C7.63726 5.3043 7.58923 5.25626 7.52998 5.25626Z" fill="white"/>
<path d="M6.27702 9.16428C6.21777 9.16428 6.16974 9.21231 6.16974 9.27156V9.61516C6.16974 9.67441 6.21777 9.72244 6.27702 9.72244C6.33627 9.72244 6.3843 9.67441 6.3843 9.61516V9.27156C6.3843 9.21231 6.33627 9.16428 6.27702 9.16428ZM6.27702 6.93119C6.21777 6.93119 6.16974 6.97922 6.16974 7.03847V7.94024C6.16974 7.99949 6.21777 8.04752 6.27702 8.04752C6.33627 8.04752 6.3843 7.99949 6.3843 7.94024V7.03847C6.3843 6.97922 6.33627 6.93119 6.27702 6.93119ZM6.27702 5.25626C6.21777 5.25626 6.16974 5.3043 6.16974 5.36355V5.70715C6.16974 5.7664 6.21777 5.81443 6.27702 5.81443C6.33627 5.81443 6.3843 5.7664 6.3843 5.70715V5.36355C6.3843 5.3043 6.33627 5.25626 6.27702 5.25626Z" fill="white"/>
<path d="M6.90331 9.35005C6.84406 9.35005 6.79603 9.39808 6.79603 9.45733V9.61516C6.79603 9.67441 6.84406 9.72244 6.90331 9.72244C6.96256 9.72244 7.0106 9.67441 7.0106 9.61516V9.45733C7.0106 9.39808 6.96256 9.35005 6.90331 9.35005ZM6.90331 7.86132C6.84406 7.86132 6.79603 7.90935 6.79603 7.96861V8.4984C6.79603 8.55765 6.84406 8.60568 6.90331 8.60568C6.96256 8.60568 7.0106 8.55765 7.0106 8.4984V7.96861C7.0106 7.90935 6.96256 7.86132 6.90331 7.86132ZM6.90331 6.3726C6.84406 6.3726 6.79603 6.42063 6.79603 6.47988V7.00967C6.79603 7.06893 6.84406 7.11696 6.90331 7.11696C6.96256 7.11696 7.0106 7.06893 7.0106 7.00967V6.47988C7.0106 6.42063 6.96256 6.3726 6.90331 6.3726ZM6.90331 5.25626C6.84406 5.25626 6.79603 5.3043 6.79603 5.36355V5.52095C6.79603 5.5802 6.84406 5.62823 6.90331 5.62823C6.96256 5.62823 7.0106 5.5802 7.0106 5.52095V5.36355C7.0106 5.3043 6.96256 5.25626 6.90331 5.25626Z" fill="white"/>
<path d="M5.65035 9.35005C5.5911 9.35005 5.54307 9.39808 5.54307 9.45733V9.61516C5.54307 9.67441 5.5911 9.72244 5.65035 9.72244C5.7096 9.72244 5.75764 9.67441 5.75764 9.61516V9.45733C5.75764 9.39808 5.7096 9.35005 5.65035 9.35005ZM5.65035 7.86132C5.5911 7.86132 5.54307 7.90935 5.54307 7.96861V8.4984C5.54307 8.55765 5.5911 8.60568 5.65035 8.60568C5.7096 8.60568 5.75764 8.55765 5.75764 8.4984V7.96861C5.75764 7.90935 5.7096 7.86132 5.65035 7.86132ZM5.65035 6.3726C5.5911 6.3726 5.54307 6.42063 5.54307 6.47988V7.00967C5.54307 7.06893 5.5911 7.11696 5.65035 7.11696C5.7096 7.11696 5.75764 7.06893 5.75764 7.00967V6.47988C5.75764 6.42063 5.7096 6.3726 5.65035 6.3726ZM5.65035 5.25626C5.5911 5.25626 5.54307 5.3043 5.54307 5.36355V5.52095C5.54307 5.5802 5.5911 5.62823 5.65035 5.62823C5.7096 5.62823 5.75764 5.5802 5.75764 5.52095V5.36355C5.75764 5.3043 5.7096 5.25626 5.65035 5.25626Z" fill="white"/>
<path d="M5.02406 9.16428C4.96481 9.16428 4.91678 9.21231 4.91678 9.27156V9.61516C4.91678 9.67441 4.96481 9.72244 5.02406 9.72244C5.08331 9.72244 5.13134 9.67441 5.13134 9.61516V9.27156C5.13134 9.21231 5.08331 9.16428 5.02406 9.16428ZM5.02406 6.93119C4.96481 6.93119 4.91678 6.97922 4.91678 7.03847V7.94024C4.91678 7.99949 4.96481 8.04752 5.02406 8.04752C5.08331 8.04752 5.13134 7.99949 5.13134 7.94024V7.03847C5.13134 6.97922 5.08331 6.93119 5.02406 6.93119ZM5.02406 5.25626C4.96481 5.25626 4.91678 5.3043 4.91678 5.36355V5.70715C4.91678 5.7664 4.96481 5.81443 5.02406 5.81443C5.08331 5.81443 5.13134 5.7664 5.13134 5.70715V5.36355C5.13134 5.3043 5.08331 5.25626 5.02406 5.25626Z" fill="white"/>
<path d="M7.52998 13.4459C7.47073 13.4459 7.4227 13.4939 7.4227 13.5532V13.8968C7.4227 13.956 7.47073 14.0041 7.52998 14.0041C7.58923 14.0041 7.63726 13.956 7.63726 13.8968V13.5532C7.63726 13.4939 7.58923 13.4459 7.52998 13.4459ZM7.52998 11.2128C7.47073 11.2128 7.4227 11.2609 7.4227 11.3201V12.2219C7.4227 12.2811 7.47073 12.3292 7.52998 12.3292C7.58923 12.3292 7.63726 12.2811 7.63726 12.2219V11.3201C7.63726 11.2609 7.58923 11.2128 7.52998 11.2128ZM7.52998 9.5379C7.47073 9.5379 7.4227 9.58593 7.4227 9.64519V9.98878C7.4227 10.048 7.47073 10.0961 7.52998 10.0961C7.58923 10.0961 7.63726 10.048 7.63726 9.98878V9.64519C7.63726 9.58593 7.58923 9.5379 7.52998 9.5379Z" fill="white"/>
<path d="M6.27702 13.4459C6.21777 13.4459 6.16974 13.4939 6.16974 13.5532V13.8968C6.16974 13.956 6.21777 14.0041 6.27702 14.0041C6.33627 14.0041 6.3843 13.956 6.3843 13.8968V13.5532C6.3843 13.4939 6.33627 13.4459 6.27702 13.4459ZM6.27702 11.2128C6.21777 11.2128 6.16974 11.2609 6.16974 11.3201V12.2219C6.16974 12.2811 6.21777 12.3292 6.27702 12.3292C6.33627 12.3292 6.3843 12.2811 6.3843 12.2219V11.3201C6.3843 11.2609 6.33627 11.2128 6.27702 11.2128ZM6.27702 9.5379C6.21777 9.5379 6.16974 9.58593 6.16974 9.64519V9.98878C6.16974 10.048 6.21777 10.0961 6.27702 10.0961C6.33627 10.0961 6.3843 10.048 6.3843 9.98878V9.64519C6.3843 9.58593 6.33627 9.5379 6.27702 9.5379Z" fill="white"/>
<path d="M6.90331 13.6317C6.84406 13.6317 6.79603 13.6797 6.79603 13.739V13.8968C6.79603 13.956 6.84406 14.0041 6.90331 14.0041C6.96256 14.0041 7.0106 13.956 7.0106 13.8968V13.739C7.0106 13.6797 6.96256 13.6317 6.90331 13.6317ZM6.90331 12.143C6.84406 12.143 6.79603 12.191 6.79603 12.2502V12.78C6.79603 12.8393 6.84406 12.8873 6.90331 12.8873C6.96256 12.8873 7.0106 12.8393 7.0106 12.78V12.2502C7.0106 12.191 6.96256 12.143 6.90331 12.143ZM6.90331 10.6542C6.84406 10.6542 6.79603 10.7023 6.79603 10.7615V11.2913C6.79603 11.3506 6.84406 11.3986 6.90331 11.3986C6.96256 11.3986 7.0106 11.3506 7.0106 11.2913V10.7615C7.0106 10.7023 6.96256 10.6542 6.90331 10.6542ZM6.90331 9.5379C6.84406 9.5379 6.79603 9.58593 6.79603 9.64519V9.80258C6.79603 9.86184 6.84406 9.90987 6.90331 9.90987C6.96256 9.90987 7.0106 9.86184 7.0106 9.80258V9.64519C7.0106 9.58593 6.96256 9.5379 6.90331 9.5379Z" fill="white"/>
<path d="M5.65035 13.6317C5.5911 13.6317 5.54307 13.6797 5.54307 13.739V13.8968C5.54307 13.956 5.5911 14.0041 5.65035 14.0041C5.7096 14.0041 5.75764 13.956 5.75764 13.8968V13.739C5.75764 13.6797 5.7096 13.6317 5.65035 13.6317ZM5.65035 12.143C5.5911 12.143 5.54307 12.191 5.54307 12.2502V12.78C5.54307 12.8393 5.5911 12.8873 5.65035 12.8873C5.7096 12.8873 5.75764 12.8393 5.75764 12.78V12.2502C5.75764 12.191 5.7096 12.143 5.65035 12.143ZM5.65035 10.6542C5.5911 10.6542 5.54307 10.7023 5.54307 10.7615V11.2913C5.54307 11.3506 5.5911 11.3986 5.65035 11.3986C5.7096 11.3986 5.75764 11.3506 5.75764 11.2913V10.7615C5.75764 10.7023 5.7096 10.6542 5.65035 10.6542ZM5.65035 9.5379C5.5911 9.5379 5.54307 9.58593 5.54307 9.64519V9.80258C5.54307 9.86184 5.5911 9.90987 5.65035 9.90987C5.7096 9.90987 5.75764 9.86184 5.75764 9.80258V9.64519C5.75764 9.58593 5.7096 9.5379 5.65035 9.5379Z" fill="white"/>
<path d="M5.02406 13.4459C4.96481 13.4459 4.91678 13.4939 4.91678 13.5532V13.8968C4.91678 13.956 4.96481 14.0041 5.02406 14.0041C5.08331 14.0041 5.13134 13.956 5.13134 13.8968V13.5532C5.13134 13.4939 5.08331 13.4459 5.02406 13.4459ZM5.02406 11.2128C4.96481 11.2128 4.91678 11.2609 4.91678 11.3201V12.2219C4.91678 12.2811 4.96481 12.3292 5.02406 12.3292C5.08331 12.3292 5.13134 12.2811 5.13134 12.2219V11.3201C5.13134 11.2609 5.08331 11.2128 5.02406 11.2128ZM5.02406 9.5379C4.96481 9.5379 4.91678 9.58593 4.91678 9.64519V9.98878C4.91678 10.048 4.96481 10.0961 5.02406 10.0961C5.08331 10.0961 5.13134 10.048 5.13134 9.98878V9.64519C5.13134 9.58593 5.08331 9.5379 5.02406 9.5379Z" fill="white"/>
<path d="M17.3295 26.2195H18.6673L18.2448 25.2795H16.907L17.3295 26.2195Z" fill="white"/>
<path d="M4.45104 26.2195H5.78856L6.21101 25.2795H4.87348L4.45104 26.2195Z" fill="white"/>
<path d="M18.1835 21.3054H14.3502V18.9566H1.38863L2.72146 22.9264C3.07287 23.9729 3.99585 24.7092 5.07297 24.8355L5.06413 24.8551H18.0542L18.0473 24.8399C19.1879 24.7251 20.1591 23.9281 20.4814 22.8084L21.5899 18.9566H18.1835V21.3054Z" fill="white"/>
<path d="M18.1835 17.3077V18.5278H22.0013L22.0637 18.5245C22.0737 18.5235 22.0835 18.5216 22.0933 18.5201C22.3865 18.4757 22.6113 18.2234 22.6113 17.9178C22.6113 17.6019 22.3713 17.3423 22.0637 17.311L22.0013 17.3077H18.1835Z" fill="white"/>
<path d="M0.977236 17.3077L0.914794 17.311C0.607223 17.3423 0.367204 17.6019 0.367188 17.9178C0.367188 18.2235 0.592171 18.4758 0.885507 18.5201C0.895233 18.5215 0.904924 18.5235 0.914794 18.5245L0.977236 18.5278H14.3502V17.3077H0.977236Z" fill="white"/>
<path d="M18.7789 14.2484C18.3001 14.2484 17.9119 14.6366 17.9119 15.1153C17.9119 15.2232 17.9328 15.326 17.9688 15.4212C17.8954 15.401 17.818 15.39 17.7381 15.39C17.5366 15.39 17.3515 15.4595 17.2043 15.5748C17.1817 15.1162 16.8024 14.7512 16.3382 14.7512C15.8743 14.7512 15.4957 15.1156 15.4725 15.5737L15.4712 15.6182L15.4267 15.6193C15.2644 15.6275 15.1138 15.6803 14.9871 15.7657C14.8307 15.5389 14.5692 15.39 14.2729 15.39C14.1808 15.39 14.0923 15.4048 14.009 15.4314C13.9454 15.0153 13.5856 14.6965 13.1517 14.6965C12.673 14.6965 12.2847 15.0848 12.2847 15.5635C12.2847 15.8131 12.3911 16.0372 12.5599 16.1954C12.4944 16.2799 12.4439 16.3764 12.4132 16.4816C12.2594 16.3424 12.0559 16.257 11.8321 16.257C11.6557 16.257 11.4917 16.3101 11.3547 16.4007C11.2129 15.9472 10.7895 15.6182 10.2893 15.6182C9.67304 15.6182 9.17339 16.1178 9.17339 16.7341C9.17339 16.7847 9.17709 16.8345 9.18362 16.8833H14.353C14.3805 16.4547 14.7252 16.1124 15.1554 16.0907L15.199 16.0896H17.3347L17.3784 16.0907C17.8085 16.1125 18.1532 16.4547 18.1807 16.8833H21.7841C21.8652 16.7514 21.9129 16.5967 21.9129 16.4305C21.9128 15.9517 21.5246 15.5635 21.0459 15.5635C21.0219 15.5635 20.9981 15.5649 20.9746 15.5668C21.0203 15.4613 21.0459 15.3451 21.0459 15.2228C21.0459 14.744 20.6577 14.3558 20.1789 14.3558C19.9137 14.3558 19.6767 14.4752 19.5177 14.6628C19.3652 14.4144 19.0917 14.2484 18.7789 14.2484Z" fill="white"/>
<path d="M5.61671 15.5892C4.94975 15.5892 4.40908 16.1299 4.40904 16.7969C4.40904 16.8259 4.41061 16.8548 4.41263 16.8833H8.16632C8.06198 16.5217 7.72883 16.257 7.33358 16.257C7.12142 16.257 6.92724 16.3335 6.77657 16.4601C6.63073 15.957 6.16675 15.5892 5.61671 15.5892Z" fill="white"/>
<path d="M2.81816 14.2511C2.72705 14.2604 2.64336 14.294 2.57281 14.3448C2.44404 14.4375 2.35979 14.5882 2.35979 14.7589V16.8789H3.38096V14.7589C3.38096 14.4769 3.15237 14.2484 2.87038 14.2484L2.81816 14.2511Z" fill="white"/>
<path d="M4.28499 0.742126C3.34748 0.742138 2.58746 1.50242 2.58746 2.43993V13.8676C2.67671 13.8393 2.77175 13.824 2.87038 13.824C2.969 13.824 3.06405 13.8393 3.1533 13.8676V2.43993C3.1533 1.81493 3.65998 1.30826 4.28499 1.30825H4.89725C5.52225 1.30826 6.02893 1.81493 6.02893 2.43993V2.82232C6.1209 2.80658 6.21539 2.798 6.31185 2.798C6.40832 2.798 6.5028 2.80658 6.59477 2.82232V2.43993C6.59477 1.50242 5.83475 0.742138 4.89725 0.742126H4.28499Z" fill="white"/>
<path d="M6.22635 3.22464C5.34593 3.26864 4.64296 3.98651 4.62303 4.87307C4.62255 4.89428 4.63981 4.91171 4.661 4.91179H7.96313L7.97779 4.90879C7.98193 4.90704 7.98543 4.90429 7.98869 4.90127C7.9963 4.8942 8.00135 4.88429 8.00109 4.87307C7.98502 4.15808 7.52471 3.55261 6.88535 3.32201C6.70636 3.25745 6.5133 3.22239 6.31206 3.22239L6.22635 3.22464Z" fill="white"/>
<path d="M18.6481 20.3166V20.7783H13.9138V20.3166H18.6481Z" fill="white"/>
</svg>
