<svg width="21" height="24" viewBox="0 0 21 24" fill="none" xmlns="http://www.w3.org/2000/svg">
<path fill-rule="evenodd" clip-rule="evenodd" d="M8.0693 1.40378V5.07287H1.44657V1.51451C1.44668 1.45342 1.4962 1.40385 1.5573 1.40378H8.0693ZM3.16914 3.95532C3.04459 3.95532 2.94366 4.09937 2.94365 4.277C2.94371 4.45458 3.04462 4.59869 3.16914 4.59869H6.50665C6.63116 4.59867 6.73208 4.45457 6.73214 4.277C6.73213 4.09939 6.63119 3.95534 6.50665 3.95532H3.16914ZM3.16914 2.87179C3.04465 2.87179 2.94376 3.01565 2.94365 3.19316C2.94367 3.37079 3.0446 3.51516 3.16914 3.51516H6.50665L6.55212 3.50867C6.65486 3.47866 6.73212 3.34857 6.73214 3.19316C6.73203 3.01566 6.63113 2.87181 6.50665 2.87179H3.16914Z" fill="white"/>
<path fill-rule="evenodd" clip-rule="evenodd" d="M8.0693 20.7008V22.2894H1.5573C1.49615 22.2893 1.44659 22.2395 1.44657 22.1784V20.7008H8.0693ZM4.16699 21.3349C4.03582 21.3349 3.92949 21.4412 3.92944 21.5724C3.92945 21.7036 4.0358 21.81 4.16699 21.81H5.34888L5.37332 21.8087C5.49302 21.7965 5.58642 21.6953 5.58644 21.5724C5.58639 21.4495 5.49301 21.3483 5.37332 21.3361L5.34888 21.3349H4.16699Z" fill="white"/>
<path fill-rule="evenodd" clip-rule="evenodd" d="M13.8003 1.40386V22.2894H8.54441V1.40386H13.8003ZM13.1857 10.9134C13.0669 10.8816 12.9448 10.9456 12.902 11.0582L12.8946 11.0814C12.8864 11.1121 12.8851 11.145 12.885 11.147C12.8842 11.1601 12.8836 11.1756 12.8832 11.1921C12.8822 11.2258 12.8815 11.2707 12.881 11.323C12.8801 11.4278 12.88 11.5679 12.8804 11.7207L12.8866 12.6252L12.8881 12.6493C12.9015 12.7689 13.0036 12.8615 13.1266 12.8603C13.2495 12.859 13.3497 12.7645 13.3607 12.6447L13.3617 12.6202L13.3555 11.7195C13.3551 11.5672 13.3552 11.4292 13.3561 11.327C13.3566 11.2757 13.3571 11.2346 13.358 11.2057C13.3584 11.1911 13.3589 11.1812 13.3592 11.1754L13.3614 11.1569C13.368 11.0466 13.2965 10.9432 13.1857 10.9134Z" fill="white"/>
<path fill-rule="evenodd" clip-rule="evenodd" d="M19.5316 20.7008V22.1784C19.5316 22.2396 19.4817 22.2894 19.4205 22.2894H14.2754V20.7008H19.5316ZM16.3475 21.3349C16.2163 21.3349 16.11 21.4413 16.1099 21.5724C16.11 21.7036 16.2163 21.8099 16.3475 21.81H17.5294L17.5538 21.8087C17.6736 21.7965 17.7669 21.6954 17.7669 21.5724C17.7669 21.4495 17.6735 21.3483 17.5538 21.3361L17.5294 21.3349H16.3475Z" fill="white"/>
<path fill-rule="evenodd" clip-rule="evenodd" d="M19.5316 18.4607V20.2256H14.2754V18.4607H19.5316ZM16.3475 19.1087C16.2163 19.1087 16.11 19.2151 16.1099 19.3463C16.11 19.4774 16.2163 19.5838 16.3475 19.5838H17.5294L17.5538 19.5826C17.6736 19.5704 17.7669 19.4692 17.7669 19.3463C17.7669 19.2233 17.6736 19.1221 17.5538 19.11L17.5294 19.1087H16.3475Z" fill="white"/>
<path fill-rule="evenodd" clip-rule="evenodd" d="M19.4205 1.40386C19.4817 1.40386 19.5315 1.45342 19.5316 1.51459V17.9856H14.2754V1.40386H19.4205ZM14.9775 10.9134C14.8587 10.8816 14.7366 10.9456 14.6939 11.0582L14.6865 11.0814C14.6783 11.1121 14.677 11.145 14.6769 11.147C14.6761 11.1601 14.6755 11.1756 14.675 11.1921C14.6741 11.2258 14.6733 11.2707 14.6729 11.323C14.672 11.4278 14.6718 11.5679 14.6722 11.7207L14.6784 12.6252L14.68 12.6493C14.6933 12.7689 14.7952 12.8614 14.9181 12.8603C15.0411 12.859 15.1416 12.7645 15.1526 12.6447L15.1535 12.6202L15.1473 11.7195C15.1469 11.5672 15.1471 11.4292 15.148 11.327C15.1484 11.2757 15.149 11.2346 15.1498 11.2057C15.1502 11.1911 15.1507 11.1812 15.1511 11.1754V11.1739C15.1666 11.0574 15.0941 10.9447 14.9775 10.9134Z" fill="white"/>
<path d="M8.0693 5.54805V7.06029H1.44657V5.54805H8.0693Z" fill="white"/>
<path fill-rule="evenodd" clip-rule="evenodd" d="M19.4641 0.538086C19.9889 0.53809 20.4144 0.963514 20.4144 1.4883V22.2368C20.4144 22.7616 19.9889 23.187 19.4641 23.187H1.51369C0.988902 23.187 0.563477 22.7616 0.563477 22.2368V1.4883C0.563477 0.963511 0.988902 0.538086 1.51369 0.538086H19.4641ZM1.5573 0.92875C1.23378 0.928817 0.971529 1.19107 0.971462 1.51459V22.1784C0.971478 22.5019 1.23375 22.7644 1.5573 22.7645H19.4205C19.7441 22.7645 20.0067 22.502 20.0067 22.1784V1.51459C20.0066 1.19103 19.7441 0.92875 19.4205 0.92875H1.5573Z" fill="white"/>
<path fill-rule="evenodd" clip-rule="evenodd" d="M8.0693 9.06179C7.74979 8.75596 7.32276 8.58235 6.87535 8.58235H6.60594C6.48943 8.89771 6.18695 9.12302 5.8311 9.12303H5.66593C5.31009 9.12303 5.00761 8.8977 4.8911 8.58235H4.86109C4.18906 8.58235 3.54443 8.8495 3.06923 9.3247L2.12552 10.2684C2.06374 10.3303 2.06369 10.4305 2.12552 10.4924L3.18368 11.5505C3.23436 11.6011 3.31282 11.6114 3.37484 11.5756L3.81128 11.3235V14.6106C3.81137 14.6979 3.88228 14.7689 3.96965 14.7689H7.5311C7.6185 14.7689 7.68938 14.698 7.68947 14.6106V11.3235L7.95269 11.4754C7.99048 11.4972 8.03112 11.5033 8.0693 11.4979V20.2355H1.44657V7.54522H8.0693V9.06179ZM2.34234 18.6657C2.19709 18.6658 2.07913 18.8024 2.07912 18.971C2.07917 19.1395 2.19711 19.2762 2.34234 19.2763H6.23631C6.38155 19.2762 6.49948 19.1395 6.49953 18.971C6.49952 18.8234 6.40917 18.7 6.2892 18.6716L6.23631 18.6657H2.34234ZM3.27988 17.4114C3.13464 17.4114 3.01678 17.5482 3.01665 17.7167C3.01667 17.8853 3.13457 18.0226 3.27988 18.0226H7.17384C7.31914 18.0226 7.43674 17.8853 7.43676 17.7167C7.43662 17.5482 7.31907 17.4114 7.17384 17.4114H3.27988Z" fill="white"/>
</svg>
