<svg width="12" height="12" viewBox="0 0 12 12" fill="none" xmlns="http://www.w3.org/2000/svg">
<path fill-rule="evenodd" clip-rule="evenodd" d="M0.836798 7.85528C1.12485 7.71126 2.56509 6.99113 2.85314 6.99113C3.14119 6.84711 3.28525 6.84711 3.42927 7.13516C3.5733 7.42321 4.14936 7.99931 4.29339 8.28736C4.43741 8.43138 4.58147 8.43138 4.86952 8.43138C5.15757 8.28736 6.02169 7.99931 7.17389 6.99113C8.03804 6.27101 8.61415 5.26283 8.75817 4.97478C8.9022 4.68673 8.75816 4.54271 8.61414 4.39868C8.47011 4.25466 8.32611 4.11063 8.18208 3.96661C8.03806 3.82258 8.03804 3.67856 7.89401 3.53453C7.74999 3.39051 7.89401 3.24648 7.89401 3.10246C7.89401 2.95843 8.47012 1.51818 8.75817 0.942085C8.9022 0.51001 9.19024 0.51001 9.33426 0.51001C9.47829 0.51001 9.62235 0.51001 9.9104 0.51001C10.0544 0.51001 10.3425 0.510009 10.6305 0.798059C10.9186 1.08611 11.6387 1.80623 11.6387 3.24648C11.6387 4.68673 10.6305 5.98296 10.4865 6.27101C10.3425 6.41503 8.47015 9.43956 5.58965 10.5918C3.14122 11.5999 2.70911 11.3119 2.13301 11.3119C1.55691 11.3119 0.404731 10.5918 0.260706 10.0157C-0.027344 9.29553 -0.0273525 8.71943 0.116673 8.71943C0.260698 7.99931 0.548748 7.99931 0.836798 7.85528Z" fill="white"/>
</svg>
