<svg width="24" height="24" viewBox="0 0 24 24" fill="none" xmlns="http://www.w3.org/2000/svg">
<path fill-rule="evenodd" clip-rule="evenodd" d="M12.3717 23.065C10.1027 23.065 9.04823 22.7337 7.21537 21.4088C6.05603 22.8994 2.3848 24.0642 2.2247 22.0713C2.2247 20.5752 1.89346 19.3109 1.51806 17.9308C1.07089 16.2304 0.562988 14.3368 0.562988 11.5931C0.562988 5.04005 5.9401 0.110107 12.3109 0.110107C18.6873 0.110107 23.6835 5.28296 23.6835 11.6538C23.7049 17.9261 18.6439 23.0315 12.3717 23.065ZM12.4655 5.7743C9.3629 5.6142 6.94486 7.76173 6.40936 11.1293C5.9677 13.9173 6.75164 17.3125 7.41963 17.4891C7.73983 17.5664 8.54585 16.915 9.04823 16.4126C9.87894 16.9865 10.8463 17.3311 11.8527 17.4118C15.0675 17.5665 17.8145 15.119 18.0303 11.9077C18.156 8.68966 15.6808 5.96397 12.4655 5.77982L12.4655 5.7743Z" fill="white"/>
</svg>
