<svg width="22" height="19" viewBox="0 0 22 19" fill="none" xmlns="http://www.w3.org/2000/svg">
<path fill-rule="evenodd" clip-rule="evenodd" d="M6.0906 1.28188C5.7151 0.470763 5.32 0.454528 4.96285 0.440257C4.67056 0.428177 4.33627 0.428966 4.00237 0.428966C3.66806 0.428966 3.12509 0.550867 2.66595 1.03826C2.2064 1.52567 0.911621 2.70386 0.911621 5.10007C0.911621 7.4965 2.70781 9.81202 2.95805 10.1373C3.20873 10.462 6.42537 15.5367 11.5192 17.4888C15.7531 19.1112 16.6146 18.7885 17.5335 18.7072C18.4524 18.6261 20.4989 17.5294 20.9164 16.3921C21.3341 15.2549 21.3341 14.2801 21.2089 14.0766C21.0836 13.8736 20.7493 13.7517 20.2482 13.5083C19.7468 13.2647 17.2828 12.0863 16.8235 11.9238C16.364 11.7614 16.0298 11.6803 15.6955 12.168C15.3614 12.655 14.4015 13.7517 14.109 14.0766C13.8168 14.402 13.5243 14.4427 13.0231 14.1991C12.5217 13.9547 10.9075 13.4409 8.99262 11.7818C7.50264 10.4909 6.49683 8.89664 6.20432 8.40899C5.91203 7.92198 6.17312 7.65817 6.42441 7.41533C6.64959 7.19709 6.92577 6.84666 7.17645 6.56241C7.42652 6.27797 7.50995 6.075 7.677 5.75011C7.84426 5.42504 7.76063 5.1406 7.63539 4.89697C7.50995 4.65336 6.53627 2.24498 6.0906 1.28188Z" fill="white"/>
</svg>
