<svg width="25" height="21" viewBox="0 0 25 21" fill="none" xmlns="http://www.w3.org/2000/svg">
<path d="M9.24768 19.1845L9.75987 14.0934C9.77895 13.9038 9.86543 13.7272 10.0036 13.5959L19.4128 4.65278C19.5524 4.52005 19.3803 4.29961 19.2177 4.40287L7.00442 12.1561C6.80101 12.2852 6.55008 12.3153 6.3219 12.238L1.10465 10.4691C0.396255 10.229 0.379788 9.23305 1.07985 8.96959L22.6727 0.843484C23.4975 0.533067 24.3395 1.25725 24.1559 2.11924L20.4671 19.4376C20.273 20.3486 19.1989 20.7503 18.4547 20.1903L13.2699 16.2887C13.2075 16.2418 13.1202 16.247 13.0638 16.3011L9.78516 19.4462C9.57142 19.6513 9.21804 19.4792 9.24768 19.1845Z" fill="white"/>
</svg>
