<svg width="24" height="24" viewBox="0 0 24 24" fill="none" xmlns="http://www.w3.org/2000/svg">
<path fill-rule="evenodd" clip-rule="evenodd" d="M20.2158 3.39925C18.0555 1.23887 15.1749 0.0866699 12.1504 0.0866699C5.81332 0.0866699 0.628418 5.27157 0.628418 11.6087C0.628418 13.625 1.20453 15.6414 2.2127 17.3697L0.628418 23.1307L6.67749 21.5464C8.40579 22.4105 10.2781 22.9866 12.1504 22.9866C18.4875 22.9866 23.6724 17.8017 23.6724 11.4646C23.6724 8.44012 22.3762 5.55962 20.2158 3.39925ZM12.1504 21.1143C10.4221 21.1143 8.69383 20.6822 7.25358 19.8181L6.96551 19.6741L3.36488 20.6822L4.37308 17.2256L4.08501 16.7936C3.07683 15.2093 2.64476 13.481 2.64476 11.7527C2.64476 6.5678 6.96552 2.24704 12.1504 2.24704C14.7429 2.24704 17.0473 3.25522 18.9196 4.98352C20.7919 6.85584 21.6561 9.16025 21.6561 11.7527C21.6561 16.7936 17.4793 21.1143 12.1504 21.1143ZM17.3353 13.9131C17.0473 13.769 15.607 13.0489 15.319 13.0489C15.0309 12.9049 14.8869 12.9049 14.7428 13.1929C14.5988 13.481 14.0228 14.0571 13.8787 14.3451C13.7347 14.4892 13.5906 14.4892 13.3026 14.4892C13.0145 14.3451 12.1504 14.0571 10.9982 13.0489C10.1341 12.3288 9.55798 11.3206 9.41395 11.0326C9.26993 10.7445 9.41396 10.6005 9.55799 10.4565C9.70201 10.3124 9.84602 10.1684 9.99004 10.0244C10.1341 9.88037 10.1341 9.73634 10.2781 9.59232C10.4221 9.44829 10.2781 9.30427 10.2781 9.16024C10.2781 9.01622 9.702 7.57597 9.41395 6.99987C9.26993 6.56779 8.98189 6.56779 8.83786 6.56779C8.69384 6.56779 8.54977 6.56779 8.26172 6.56779C8.1177 6.56779 7.82965 6.56779 7.5416 6.85584C7.25355 7.14389 6.53345 7.86402 6.53345 9.30427C6.53345 10.7445 7.54161 12.0407 7.68563 12.3288C7.82966 12.4728 9.70197 15.4973 12.5825 16.6495C15.0309 17.6577 15.463 17.3697 16.0391 17.3697C16.6152 17.3697 17.7674 16.6495 17.9114 16.0734C18.1995 15.3533 18.1995 14.7772 18.0555 14.7772C17.9114 14.0571 17.6234 14.0571 17.3353 13.9131Z" fill="white"/>
</svg>
