<svg width="577" height="410" viewBox="0 0 577 410" fill="none" xmlns="http://www.w3.org/2000/svg">
<path d="M455.467 380.995C457.45 381.248 458.985 382.942 458.985 384.994V406.183C458.985 408.006 457.513 409.478 455.689 409.479H331.171C329.92 409.478 328.832 408.771 328.271 407.734C328.754 406.903 329.647 406.35 330.67 406.35H453.465C454.575 406.35 455.467 405.458 455.467 404.348V380.995Z" stroke="#549C60"/>
<path d="M330.628 227.317H134.688C133.114 227.317 131.838 228.593 131.838 230.167V345.092C131.838 346.666 133.114 347.942 134.688 347.942H330.628C332.202 347.942 333.478 346.666 333.478 345.092V230.167C333.478 228.593 332.202 227.317 330.628 227.317Z" stroke="#549C60" stroke-width="0.75" stroke-linecap="round" stroke-linejoin="round"/>
<path d="M326.122 227.317H130.182C128.608 227.317 127.332 228.593 127.332 230.167V345.092C127.332 346.666 128.608 347.942 130.182 347.942H326.122C327.696 347.942 328.972 346.666 328.972 345.092V230.167C328.972 228.593 327.696 227.317 326.122 227.317Z" stroke="#549C60" stroke-width="0.75" stroke-linecap="round" stroke-linejoin="round"/>
<path d="M323.271 342.242V233.017H133.032V342.242H323.271Z" stroke="#549C60" stroke-width="0.75" stroke-linecap="round" stroke-linejoin="round"/>
<path d="M261.276 348.442V389.972H209.332V348.442H261.276Z" stroke="#549C60"/>
<path d="M261.179 348.442V352.17H209.332V348.442H261.179Z" stroke="#549C60"/>
<path d="M261.776 347.942H208.832V390.472H261.776V347.942Z" stroke="#549C60" stroke-width="0.75" stroke-linecap="round" stroke-linejoin="round"/>
<path d="M265.724 347.942H261.775V390.472H265.724V347.942Z" stroke="#549C60" stroke-width="0.75" stroke-linecap="round" stroke-linejoin="round"/>
<path d="M278.545 390.472H301.569C302.751 390.472 303.71 391.432 303.71 392.613V396.604C303.71 397.785 302.751 398.745 301.569 398.745H278.545V390.486V390.472Z" stroke="#549C60" stroke-width="0.75" stroke-linecap="round" stroke-linejoin="round"/>
<path d="M288.251 390.472H169.752C168.57 390.472 167.611 391.431 167.611 392.613V396.59C167.611 397.772 168.57 398.731 169.752 398.731H288.251C289.433 398.731 290.392 397.772 290.392 396.59V392.613C290.392 391.431 289.433 390.472 288.251 390.472Z" stroke="#549C60" stroke-width="0.75" stroke-linecap="round" stroke-linejoin="round"/>
<path d="M223.181 247.073H208.068V262.186H223.181V247.073Z" stroke="#549C60" stroke-width="0.75" stroke-linecap="round" stroke-linejoin="round"/>
<path d="M208.068 257.487C208.068 257.487 210.724 253.621 214.408 254.622C218.093 255.624 216.063 257.083 223.181 257.083V262.186H208.068V257.5V257.487Z" stroke="#549C60" stroke-width="0.75" stroke-linecap="round" stroke-linejoin="round"/>
<path d="M216.09 250.896C216.09 249.854 215.256 249.02 214.213 249.02C213.17 249.02 212.336 249.854 212.336 250.896C212.336 251.939 213.17 252.773 214.213 252.773C215.256 252.773 216.09 251.939 216.09 250.896Z" stroke="#549C60" stroke-width="0.75" stroke-linecap="round" stroke-linejoin="round"/>
<path d="M197.379 240.135H140.152V335.123H197.379V240.135Z" stroke="#549C60" stroke-width="0.75" stroke-linecap="round" stroke-linejoin="round"/>
<path d="M193.109 330.855V244.404H144.42V330.855H193.109Z" stroke="#549C60" stroke-width="0.75" stroke-linecap="round" stroke-linejoin="round"/>
<path d="M187.035 248.978H149.969V257.028H187.035V248.978Z" stroke="#549C60" stroke-width="0.75" stroke-linecap="round" stroke-linejoin="round"/>
<path d="M188.94 263.882H149.148V270.056H188.94V263.882Z" stroke="#549C60" stroke-width="0.75" stroke-linecap="round" stroke-linejoin="round"/>
<path d="M188.94 274.352H149.148V280.525H188.94V274.352Z" stroke="#549C60" stroke-width="0.75" stroke-linecap="round" stroke-linejoin="round"/>
<path d="M177.537 300.657H160.547C158.837 300.657 157.461 299.28 157.461 297.57C157.461 295.86 158.837 294.484 160.547 294.484H177.537C179.247 294.484 180.624 295.86 180.624 297.57C180.624 299.28 179.247 300.657 177.537 300.657Z" stroke="#549C60" stroke-width="0.75" stroke-linecap="round" stroke-linejoin="round"/>
<path d="M180.625 284.418H157.727V285.822H180.625V284.418Z" stroke="#549C60" stroke-width="0.75" stroke-linecap="round" stroke-linejoin="round"/>
<path d="M189.204 310.486H149.148V312.335H189.204V310.486Z" stroke="#549C60" stroke-width="0.75" stroke-linecap="round" stroke-linejoin="round"/>
<path d="M189.204 314.073H149.148V315.922H189.204V314.073Z" stroke="#549C60" stroke-width="0.75" stroke-linecap="round" stroke-linejoin="round"/>
<path d="M166.555 317.674H149.148V319.524H166.555V317.674Z" stroke="#549C60" stroke-width="0.75" stroke-linecap="round" stroke-linejoin="round"/>
<path d="M189.201 323.264H179.01V325.113H189.201V323.264Z" stroke="#549C60" stroke-width="0.75" stroke-linecap="round" stroke-linejoin="round"/>
<path d="M180.887 340.531H108.229V373.58H180.887V340.531Z" fill="#1B1B1B" stroke="#549C60" stroke-width="0.75" stroke-linecap="round" stroke-linejoin="round"/>
<path d="M108.23 340.531V373.566H108.453L120.479 340.531H108.23Z" stroke="#549C60" stroke-width="0.75" stroke-linecap="round" stroke-linejoin="round"/>
<path d="M116.375 373.566H128.61L140.636 340.531H128.401L116.375 373.566Z" stroke="#549C60" stroke-width="0.75" stroke-linecap="round" stroke-linejoin="round"/>
<path d="M136.535 373.566H148.77L160.796 340.531H148.562L136.535 373.566Z" stroke="#549C60" stroke-width="0.75" stroke-linecap="round" stroke-linejoin="round"/>
<path d="M156.695 373.566H168.944L180.887 340.74V340.531H168.722L156.695 373.566Z" stroke="#549C60" stroke-width="0.75" stroke-linecap="round" stroke-linejoin="round"/>
<path d="M180.887 362.512L176.869 373.566H180.887V362.512Z" stroke="#549C60" stroke-width="0.75" stroke-linecap="round" stroke-linejoin="round"/>
<path d="M123.062 373.566V396.103" stroke="#549C60" stroke-width="0.75" stroke-linecap="round" stroke-linejoin="round"/>
<path d="M119.17 396.103H126.956C127.679 396.103 128.277 396.687 128.277 397.424C128.277 398.147 127.693 398.745 126.956 398.745H119.17C118.447 398.745 117.85 398.161 117.85 397.424C117.85 396.701 118.434 396.103 119.17 396.103Z" stroke="#549C60" stroke-width="0.75" stroke-linecap="round" stroke-linejoin="round"/>
<path d="M166.053 373.566V396.103" stroke="#549C60" stroke-width="0.75" stroke-linecap="round" stroke-linejoin="round"/>
<path d="M169.958 396.103H162.172C161.449 396.103 160.852 396.687 160.852 397.424C160.852 398.147 161.436 398.745 162.172 398.745H169.958C170.681 398.745 171.279 398.161 171.279 397.424C171.279 396.701 170.695 396.103 169.958 396.103Z" stroke="#549C60" stroke-width="0.75" stroke-linecap="round" stroke-linejoin="round"/>
<path d="M329.042 396.145H307.283C306.574 396.145 305.99 396.728 305.99 397.438C305.99 398.147 306.574 398.731 307.283 398.731H329.042C329.751 398.731 330.335 398.147 330.335 397.438C330.335 396.728 329.751 396.145 329.042 396.145Z" stroke="#549C60" stroke-width="0.75" stroke-linecap="round" stroke-linejoin="round"/>
<path d="M317.392 370.632L308.605 396.145H327.709L318.922 370.632C318.672 369.909 317.643 369.909 317.392 370.632Z" stroke="#549C60" stroke-width="0.75" stroke-linecap="round" stroke-linejoin="round"/>
<path d="M308.605 396.145H318.171H327.723L325.762 390.472H310.566L308.605 396.145Z" stroke="#549C60" stroke-width="0.75" stroke-linecap="round" stroke-linejoin="round"/>
<path d="M312.264 385.537H324.068L321.982 379.489H314.349L312.264 385.537Z" stroke="#549C60" stroke-width="0.75" stroke-linecap="round" stroke-linejoin="round"/>
<path d="M317.392 370.632L316.043 374.553H320.27L318.921 370.632C318.671 369.909 317.642 369.909 317.392 370.632Z" stroke="#549C60" stroke-width="0.75" stroke-linecap="round" stroke-linejoin="round"/>
<path d="M109.134 396.145H87.3751C86.666 396.145 86.082 396.728 86.082 397.438C86.082 398.147 86.666 398.731 87.3751 398.731H109.134C109.843 398.731 110.427 398.147 110.427 397.438C110.427 396.728 109.843 396.145 109.134 396.145Z" stroke="#549C60" stroke-width="0.75" stroke-linecap="round" stroke-linejoin="round"/>
<path d="M97.4842 370.632L88.6973 396.145H107.8L99.0135 370.632C98.7633 369.909 97.7345 369.909 97.4842 370.632Z" stroke="#549C60" stroke-width="0.75" stroke-linecap="round" stroke-linejoin="round"/>
<path d="M88.6973 396.145H98.2489H107.8L105.854 390.472H90.6576L88.6973 396.145Z" stroke="#549C60" stroke-width="0.75" stroke-linecap="round" stroke-linejoin="round"/>
<path d="M92.3555 385.537H104.145L102.074 379.489H94.441L92.3555 385.537Z" stroke="#549C60" stroke-width="0.75" stroke-linecap="round" stroke-linejoin="round"/>
<path d="M97.4814 370.632L96.1328 374.553H100.359L99.0108 370.632C98.7605 369.909 97.7317 369.909 97.4814 370.632Z" stroke="#549C60" stroke-width="0.75" stroke-linecap="round" stroke-linejoin="round"/>
<path d="M443.173 396.145H421.414C420.705 396.145 420.121 396.728 420.121 397.438C420.121 398.147 420.705 398.731 421.414 398.731H443.173C443.882 398.731 444.466 398.147 444.466 397.438C444.466 396.728 443.882 396.145 443.173 396.145Z" stroke="#549C60" stroke-width="0.75" stroke-linecap="round" stroke-linejoin="round"/>
<path d="M431.539 370.632L422.752 396.145H441.855L433.068 370.632C432.818 369.909 431.789 369.909 431.539 370.632Z" stroke="#549C60" stroke-width="0.75" stroke-linecap="round" stroke-linejoin="round"/>
<path d="M422.752 396.145H432.304H441.855L439.895 390.472H424.698L422.752 396.145Z" stroke="#549C60" stroke-width="0.75" stroke-linecap="round" stroke-linejoin="round"/>
<path d="M426.408 385.537H438.198L436.113 379.489H428.494L426.408 385.537Z" stroke="#549C60" stroke-width="0.75" stroke-linecap="round" stroke-linejoin="round"/>
<path d="M431.536 370.632L430.188 374.553H434.414L433.065 370.632C432.815 369.909 431.786 369.909 431.536 370.632Z" stroke="#549C60" stroke-width="0.75" stroke-linecap="round" stroke-linejoin="round"/>
<path d="M192.566 354.421V398.731" stroke="#549C60" stroke-width="0.75" stroke-linecap="round" stroke-linejoin="round"/>
<path d="M194.293 354.421C194.293 353.461 193.514 352.669 192.541 352.669C191.568 352.669 190.789 353.447 190.789 354.421C190.789 355.394 191.568 356.172 192.541 356.172C193.514 356.172 194.293 355.394 194.293 354.421Z" stroke="#549C60" stroke-width="0.75" stroke-linecap="round" stroke-linejoin="round"/>
<path d="M406.225 350.166V394.476" stroke="#549C60" stroke-width="0.75" stroke-linecap="round" stroke-linejoin="round"/>
<path d="M401.508 387.288C401.508 386.329 400.729 385.537 399.756 385.537C398.783 385.537 398.004 386.315 398.004 387.288C398.004 388.262 398.783 389.04 399.756 389.04C400.729 389.04 401.508 388.262 401.508 387.288Z" stroke="#549C60" stroke-width="0.75" stroke-linecap="round" stroke-linejoin="round"/>
<path d="M340.889 359.301H192.566V364.181H340.889V359.301Z" fill="#1B1B1B" stroke="#549C60" stroke-width="0.75" stroke-linecap="round" stroke-linejoin="round"/>
<path d="M195.027 364.181H197.127L198.906 359.301H196.807L195.027 364.181Z" stroke="#549C60" stroke-width="0.75" stroke-linecap="round" stroke-linejoin="round"/>
<path d="M200.66 364.181H202.76L204.539 359.301H202.44L200.66 364.181Z" stroke="#549C60" stroke-width="0.75" stroke-linecap="round" stroke-linejoin="round"/>
<path d="M206.289 364.181H208.388L210.168 359.301H208.069L206.289 364.181Z" stroke="#549C60" stroke-width="0.75" stroke-linecap="round" stroke-linejoin="round"/>
<path d="M211.92 364.181H214.019L215.799 359.301H213.7L211.92 364.181Z" stroke="#549C60" stroke-width="0.75" stroke-linecap="round" stroke-linejoin="round"/>
<path d="M217.551 364.181H219.65L221.43 359.301H219.33L217.551 364.181Z" stroke="#549C60" stroke-width="0.75" stroke-linecap="round" stroke-linejoin="round"/>
<path d="M223.182 364.181H225.281L227.061 359.301H224.961L223.182 364.181Z" stroke="#549C60" stroke-width="0.75" stroke-linecap="round" stroke-linejoin="round"/>
<path d="M228.814 364.181H230.914L232.693 359.301H230.594L228.814 364.181Z" stroke="#549C60" stroke-width="0.75" stroke-linecap="round" stroke-linejoin="round"/>
<path d="M234.443 364.181H236.543L238.308 359.301H236.223L234.443 364.181Z" stroke="#549C60" stroke-width="0.75" stroke-linecap="round" stroke-linejoin="round"/>
<path d="M240.076 364.181H242.176L243.941 359.301H241.856L240.076 364.181Z" stroke="#549C60" stroke-width="0.75" stroke-linecap="round" stroke-linejoin="round"/>
<path d="M245.703 364.181H247.803L249.568 359.301H247.483L245.703 364.181Z" stroke="#549C60" stroke-width="0.75" stroke-linecap="round" stroke-linejoin="round"/>
<path d="M251.336 364.181H253.435L255.201 359.301H253.116L251.336 364.181Z" stroke="#549C60" stroke-width="0.75" stroke-linecap="round" stroke-linejoin="round"/>
<path d="M256.969 364.181H259.068L260.834 359.301H258.748L256.969 364.181Z" stroke="#549C60" stroke-width="0.75" stroke-linecap="round" stroke-linejoin="round"/>
<path d="M262.598 364.181H264.697L266.463 359.301H264.377L262.598 364.181Z" stroke="#549C60" stroke-width="0.75" stroke-linecap="round" stroke-linejoin="round"/>
<path d="M268.229 364.181H270.328L272.094 359.301H270.008L268.229 364.181Z" stroke="#549C60" stroke-width="0.75" stroke-linecap="round" stroke-linejoin="round"/>
<path d="M273.859 364.181H275.959L277.725 359.301H275.639L273.859 364.181Z" stroke="#549C60" stroke-width="0.75" stroke-linecap="round" stroke-linejoin="round"/>
<path d="M279.49 364.181H281.59L283.355 359.301H281.27L279.49 364.181Z" stroke="#549C60" stroke-width="0.75" stroke-linecap="round" stroke-linejoin="round"/>
<path d="M285.123 364.181H287.222L288.988 359.301H286.903L285.123 364.181Z" stroke="#549C60" stroke-width="0.75" stroke-linecap="round" stroke-linejoin="round"/>
<path d="M290.752 364.181H292.851L294.617 359.301H292.532L290.752 364.181Z" stroke="#549C60" stroke-width="0.75" stroke-linecap="round" stroke-linejoin="round"/>
<path d="M296.385 364.181H298.484L300.25 359.301H298.164L296.385 364.181Z" stroke="#549C60" stroke-width="0.75" stroke-linecap="round" stroke-linejoin="round"/>
<path d="M302.012 364.181H304.111L305.877 359.301H303.791L302.012 364.181Z" stroke="#549C60" stroke-width="0.75" stroke-linecap="round" stroke-linejoin="round"/>
<path d="M307.645 364.181H309.744L311.51 359.301H309.424L307.645 364.181Z" stroke="#549C60" stroke-width="0.75" stroke-linecap="round" stroke-linejoin="round"/>
<path d="M313.275 364.181H315.375L317.141 359.301H315.041L313.275 364.181Z" stroke="#549C60" stroke-width="0.75" stroke-linecap="round" stroke-linejoin="round"/>
<path d="M318.906 364.181H321.006L322.771 359.301H320.672L318.906 364.181Z" stroke="#549C60" stroke-width="0.75" stroke-linecap="round" stroke-linejoin="round"/>
<path d="M324.537 364.181H326.637L328.402 359.301H326.303L324.537 364.181Z" stroke="#549C60" stroke-width="0.75" stroke-linecap="round" stroke-linejoin="round"/>
<path d="M330.168 364.181H332.267L334.033 359.301H331.934L330.168 364.181Z" stroke="#549C60" stroke-width="0.75" stroke-linecap="round" stroke-linejoin="round"/>
<path d="M335.799 364.181H337.898L339.664 359.301H337.565L335.799 364.181Z" stroke="#549C60" stroke-width="0.75" stroke-linecap="round" stroke-linejoin="round"/>
<path d="M113.555 305.411H109.453V310.556H113.555V305.411Z" stroke="#549C60" stroke-width="0.75" stroke-linecap="round" stroke-linejoin="round"/>
<path d="M232.736 215.707H228.635V220.851H232.736V215.707Z" stroke="#549C60" stroke-width="0.75" stroke-linecap="round" stroke-linejoin="round"/>
<path d="M349.051 205.697H344.949V210.841H349.051V205.697Z" stroke="#549C60" stroke-width="0.75" stroke-linecap="round" stroke-linejoin="round"/>
<path d="M92.7987 345.37H88.6973V350.514H92.7987V345.37Z" stroke="#549C60" stroke-width="0.75" stroke-linecap="round" stroke-linejoin="round"/>
<path d="M439.463 292.717H435.361V297.862H439.463V292.717Z" stroke="#549C60" stroke-width="0.75" stroke-linecap="round" stroke-linejoin="round"/>
<path d="M139.109 201.122H133.965V205.224H139.109V201.122Z" stroke="#549C60" stroke-width="0.75" stroke-linecap="round" stroke-linejoin="round"/>
<path d="M342.32 247.073V252.106" stroke="#549C60" stroke-width="0.75" stroke-linecap="round" stroke-linejoin="round"/>
<path d="M339.805 249.59H344.838" stroke="#549C60" stroke-width="0.75" stroke-linecap="round" stroke-linejoin="round"/>
<path d="M422.754 249.59V254.623" stroke="#549C60" stroke-width="0.75" stroke-linecap="round" stroke-linejoin="round"/>
<path d="M420.238 252.106H425.271" stroke="#549C60" stroke-width="0.75" stroke-linecap="round" stroke-linejoin="round"/>
<path d="M186.871 206.614V211.647" stroke="#549C60" stroke-width="0.75" stroke-linecap="round" stroke-linejoin="round"/>
<path d="M184.352 209.131H189.385" stroke="#549C60" stroke-width="0.75" stroke-linecap="round" stroke-linejoin="round"/>
<path d="M106.658 269.93V274.963" stroke="#549C60" stroke-width="0.75" stroke-linecap="round" stroke-linejoin="round"/>
<path d="M104.141 272.447H109.174" stroke="#549C60" stroke-width="0.75" stroke-linecap="round" stroke-linejoin="round"/>
<path d="M400.523 314.212V319.245" stroke="#549C60" stroke-width="0.75" stroke-linecap="round" stroke-linejoin="round"/>
<path d="M398.004 316.729H403.037" stroke="#549C60" stroke-width="0.75" stroke-linecap="round" stroke-linejoin="round"/>
<path d="M142.195 380.601V385.634" stroke="#549C60" stroke-width="0.75" stroke-linecap="round" stroke-linejoin="round"/>
<path d="M139.68 383.117H144.713" stroke="#549C60" stroke-width="0.75" stroke-linecap="round" stroke-linejoin="round"/>
<path d="M386.727 323.986H364.176V346.538H386.727V323.986Z" stroke="#549C60" stroke-width="0.75" stroke-linecap="round" stroke-linejoin="round"/>
<path d="M364.176 346.538L386.727 323.986" stroke="#549C60" stroke-width="0.75" stroke-linecap="round" stroke-linejoin="round"/>
<path d="M386.727 301.449H364.176V324H386.727V301.449Z" stroke="#549C60" stroke-width="0.75" stroke-linecap="round" stroke-linejoin="round"/>
<path d="M364.176 323.987L386.727 301.449" stroke="#549C60" stroke-width="0.75" stroke-linecap="round" stroke-linejoin="round"/>
<path d="M386.727 278.898H364.176V301.449H386.727V278.898Z" stroke="#549C60" stroke-width="0.75" stroke-linecap="round" stroke-linejoin="round"/>
<path d="M364.176 301.449L386.727 278.898" stroke="#549C60" stroke-width="0.75" stroke-linecap="round" stroke-linejoin="round"/>
<path d="M386.727 256.346H364.176V278.898H386.727V256.346Z" stroke="#549C60" stroke-width="0.75" stroke-linecap="round" stroke-linejoin="round"/>
<path d="M364.176 278.898L386.727 256.346" stroke="#549C60" stroke-width="0.75" stroke-linecap="round" stroke-linejoin="round"/>
<path d="M386.727 233.809H364.176V256.36H386.727V233.809Z" stroke="#549C60" stroke-width="0.75" stroke-linecap="round" stroke-linejoin="round"/>
<path d="M364.176 256.346L386.727 233.809" stroke="#549C60" stroke-width="0.75" stroke-linecap="round" stroke-linejoin="round"/>
<path d="M386.727 211.258H364.176V233.809H386.727V211.258Z" stroke="#549C60" stroke-width="0.75" stroke-linecap="round" stroke-linejoin="round"/>
<path d="M364.176 233.809L386.727 211.258" stroke="#549C60" stroke-width="0.75" stroke-linecap="round" stroke-linejoin="round"/>
<path d="M386.727 188.721H364.176V211.272H386.727V188.721Z" stroke="#549C60" stroke-width="0.75" stroke-linecap="round" stroke-linejoin="round"/>
<path d="M364.176 211.258L386.727 188.721" stroke="#549C60" stroke-width="0.75" stroke-linecap="round" stroke-linejoin="round"/>
<path d="M296.161 196.006H254.09C253.255 196.006 252.574 195.325 252.574 194.491C252.574 193.656 253.255 192.975 254.09 192.975H296.161C296.995 192.975 297.677 193.656 297.677 194.491C297.677 195.325 296.995 196.006 296.161 196.006Z" stroke="#549C60" stroke-width="0.75" stroke-linecap="round" stroke-linejoin="round"/>
<path d="M260.623 243.589H274.387" stroke="#549C60" stroke-width="0.75" stroke-linecap="round" stroke-linejoin="round"/>
<path d="M262.331 246.85H272.675C272.693 246.85 272.703 246.853 272.707 246.855C272.712 246.856 272.716 246.858 272.72 246.862C272.724 246.864 272.727 246.868 272.729 246.871C272.742 246.897 272.75 246.915 272.753 246.933C272.754 246.941 272.754 246.947 272.753 246.95C272.752 246.954 272.75 246.961 272.742 246.975V246.976L268.544 254.246C268.328 254.62 267.937 254.845 267.503 254.845C267.069 254.845 266.677 254.62 266.461 254.246L262.263 246.976V246.975C262.252 246.956 262.25 246.945 262.249 246.942C262.248 246.938 262.248 246.934 262.248 246.931C262.249 246.921 262.255 246.907 262.265 246.89C262.275 246.872 262.283 246.862 262.289 246.858C262.291 246.856 262.292 246.855 262.295 246.854C262.297 246.853 262.309 246.85 262.331 246.85Z" stroke="#549C60"/>
<path d="M273.275 247.006C273.266 247.08 273.244 247.155 273.204 247.226L269.005 254.498C268.669 255.07 268.089 255.36 267.506 255.36C266.958 255.36 266.413 255.104 266.07 254.599L266.005 254.496L261.809 247.23H261.81C261.769 247.158 261.744 247.082 261.734 247.007L261.845 247.198L266.041 254.464V254.465C266.479 255.241 267.226 255.317 267.506 255.317C267.796 255.317 268.532 255.221 268.967 254.47L268.968 254.469L273.166 247.198L273.275 247.006ZM261.917 246.587L261.862 246.67L261.733 246.863C261.755 246.668 261.871 246.491 262.044 246.396L261.917 246.587ZM272.966 246.396C273.139 246.491 273.255 246.667 273.277 246.863L273.149 246.67L273.094 246.587L272.966 246.396ZM262.333 246.322H272.678C272.758 246.322 272.832 246.338 272.9 246.365H262.111C262.179 246.338 262.253 246.322 262.333 246.322Z" stroke="#549C60"/>
<path d="M270.882 261.616C270.882 263.479 269.367 264.994 267.504 264.994C265.64 264.994 264.125 263.479 264.125 261.616C264.125 259.753 265.64 258.237 267.504 258.237V255.86" stroke="#549C60" stroke-width="0.75" stroke-linecap="round" stroke-linejoin="round"/>
<path d="M257.537 240.856V196.006" stroke="#549C60" stroke-width="0.75" stroke-linecap="round" stroke-linejoin="round"/>
<path d="M260.626 243.589C262.33 243.589 263.712 242.208 263.712 240.503C263.712 238.798 262.33 237.416 260.626 237.416C258.921 237.416 257.539 238.798 257.539 240.503C257.539 242.208 258.921 243.589 260.626 243.589Z" stroke="#549C60" stroke-width="0.75" stroke-linecap="round" stroke-linejoin="round"/>
<path d="M260.625 239.501C261.183 239.502 261.626 239.945 261.626 240.503C261.626 241.061 261.183 241.504 260.625 241.504C260.078 241.504 259.623 241.058 259.623 240.503C259.623 239.945 260.067 239.501 260.625 239.501Z" stroke="#549C60"/>
<path d="M260.623 238.987C261.459 238.987 262.139 239.666 262.14 240.502C262.14 241.338 261.459 242.019 260.623 242.019C259.787 242.019 259.107 241.338 259.107 240.502C259.108 239.666 259.787 238.987 260.623 238.987ZM260.623 239.03C259.819 239.03 259.151 239.698 259.15 240.502C259.15 241.302 259.8 241.976 260.623 241.976C261.441 241.976 262.097 241.321 262.097 240.502C262.096 239.684 261.441 239.03 260.623 239.03Z" stroke="#549C60"/>
<path d="M277.475 240.856V196.006" stroke="#549C60" stroke-width="0.75" stroke-linecap="round" stroke-linejoin="round"/>
<path d="M274.391 243.589C276.096 243.589 277.478 242.208 277.478 240.503C277.478 238.798 276.096 237.416 274.391 237.416C272.687 237.416 271.305 238.798 271.305 240.503C271.305 242.208 272.687 243.589 274.391 243.589Z" stroke="#549C60" stroke-width="0.75" stroke-linecap="round" stroke-linejoin="round"/>
<path d="M274.389 239.501C274.947 239.502 275.39 239.945 275.39 240.503C275.389 241.061 274.946 241.504 274.389 241.504C273.842 241.504 273.387 241.058 273.387 240.503C273.387 239.945 273.831 239.501 274.389 239.501Z" stroke="#549C60"/>
<path d="M274.389 238.987C275.225 238.987 275.905 239.666 275.905 240.502C275.905 241.338 275.225 242.019 274.389 242.019C273.553 242.019 272.873 241.338 272.873 240.502C272.873 239.666 273.553 238.987 274.389 238.987ZM274.389 239.03C273.566 239.03 272.916 239.703 272.916 240.502C272.916 241.307 273.584 241.976 274.389 241.976C275.188 241.976 275.862 241.325 275.862 240.502C275.862 239.684 275.207 239.03 274.389 239.03Z" stroke="#549C60"/>
<path d="M260.627 237.416H274.391" stroke="#549C60" stroke-width="0.75" stroke-linecap="round" stroke-linejoin="round"/>
<path d="M444.844 192.057V207.948C444.844 211.064 442.315 213.594 439.199 213.594H417.677C414.56 213.594 412.031 211.065 412.031 207.948V192.057H444.844Z" stroke="#549C60"/>
<path d="M444.844 192.057V194.588H412.031V192.057H444.844Z" stroke="#549C60"/>
<path d="M411.531 191.557H445.344V207.949C445.344 211.341 442.591 214.094 439.199 214.094H417.677C414.284 214.094 411.531 211.341 411.531 207.949V191.557Z" stroke="#549C60" stroke-width="0.75" stroke-linecap="round" stroke-linejoin="round"/>
<path d="M416.051 197.591L417.705 195.867" stroke="#549C60" stroke-width="0.75" stroke-linecap="round" stroke-linejoin="round"/>
<path d="M435.463 207.851L437.117 206.127" stroke="#549C60" stroke-width="0.75" stroke-linecap="round" stroke-linejoin="round"/>
<path d="M429.592 211.981L431.246 210.243" stroke="#549C60" stroke-width="0.75" stroke-linecap="round" stroke-linejoin="round"/>
<path d="M427.396 197.883L425.672 196.228" stroke="#549C60" stroke-width="0.75" stroke-linecap="round" stroke-linejoin="round"/>
<path d="M419.066 209.687L417.342 208.032" stroke="#549C60" stroke-width="0.75" stroke-linecap="round" stroke-linejoin="round"/>
<path d="M438.283 195.616L436.559 193.962" stroke="#549C60" stroke-width="0.75" stroke-linecap="round" stroke-linejoin="round"/>
<path d="M420.069 203.166L420.027 200.774" stroke="#549C60" stroke-width="0.75" stroke-linecap="round" stroke-linejoin="round"/>
<path d="M433.596 201.025L433.555 198.634" stroke="#549C60" stroke-width="0.75" stroke-linecap="round" stroke-linejoin="round"/>
<path d="M427.731 206.058L425.34 206.127" stroke="#549C60" stroke-width="0.75" stroke-linecap="round" stroke-linejoin="round"/>
<path d="M442.438 201.539L440.061 201.609" stroke="#549C60" stroke-width="0.75" stroke-linecap="round" stroke-linejoin="round"/>
<path d="M386.727 188.721L364.176 166.169V188.721H386.727Z" stroke="#549C60" stroke-width="0.75" stroke-linecap="round" stroke-linejoin="round"/>
<path d="M377.705 188.721L400.256 166.169V188.721H377.705Z" stroke="#549C60" stroke-width="0.75" stroke-linecap="round" stroke-linejoin="round"/>
<path d="M364.188 166.169H341.637V188.721H364.188V166.169Z" stroke="#549C60" stroke-width="0.75" stroke-linecap="round" stroke-linejoin="round"/>
<path d="M341.637 188.721L364.174 166.169" stroke="#549C60" stroke-width="0.75" stroke-linecap="round" stroke-linejoin="round"/>
<path d="M422.805 166.169H400.254V188.721H422.805V166.169Z" stroke="#549C60" stroke-width="0.75" stroke-linecap="round" stroke-linejoin="round"/>
<path d="M400.254 188.721L422.791 166.169" stroke="#549C60" stroke-width="0.75" stroke-linecap="round" stroke-linejoin="round"/>
<path d="M422.793 166.169V188.721H445.344L422.793 166.169Z" stroke="#549C60" stroke-width="0.75" stroke-linecap="round" stroke-linejoin="round"/>
<path d="M341.639 166.169H319.088V188.721H341.639V166.169Z" stroke="#549C60" stroke-width="0.75" stroke-linecap="round" stroke-linejoin="round"/>
<path d="M319.088 188.721L341.639 166.169" stroke="#549C60" stroke-width="0.75" stroke-linecap="round" stroke-linejoin="round"/>
<path d="M319.1 166.169H296.549V188.721H319.1V166.169Z" stroke="#549C60" stroke-width="0.75" stroke-linecap="round" stroke-linejoin="round"/>
<path d="M296.549 188.721L319.086 166.169" stroke="#549C60" stroke-width="0.75" stroke-linecap="round" stroke-linejoin="round"/>
<path d="M296.551 166.169H274V188.721H296.551V166.169Z" stroke="#549C60" stroke-width="0.75" stroke-linecap="round" stroke-linejoin="round"/>
<path d="M274 188.721L296.551 166.169" stroke="#549C60" stroke-width="0.75" stroke-linecap="round" stroke-linejoin="round"/>
<path d="M273.998 166.169L251.447 188.721H273.998V166.169Z" stroke="#549C60" stroke-width="0.75" stroke-linecap="round" stroke-linejoin="round"/>
<path d="M274 166.17L386.005 132.329" stroke="#549C60" stroke-width="0.75" stroke-linecap="round" stroke-linejoin="round"/>
<path d="M422.791 166.169L388.742 132.996" stroke="#549C60" stroke-width="0.75" stroke-linecap="round" stroke-linejoin="round"/>
<path d="M386.727 135.332L364.176 166.169V188.721H386.727V135.332Z" stroke="#549C60" stroke-width="0.75" stroke-linecap="round" stroke-linejoin="round"/>
<path d="M364.176 188.721L386.727 135.332" stroke="#549C60" stroke-width="0.75" stroke-linecap="round" stroke-linejoin="round"/>
<path d="M383.639 135.332C383.639 133.622 385.015 132.245 386.725 132.245C388.435 132.245 389.812 133.622 389.812 135.332C389.812 137.042 388.435 138.419 386.725 138.419C385.015 138.419 383.639 137.042 383.639 135.332Z" stroke="#549C60" stroke-width="0.75" stroke-linecap="round" stroke-linejoin="round"/>
<path d="M386.723 134.317C387.281 134.317 387.724 134.761 387.724 135.319C387.723 135.876 387.28 136.319 386.723 136.32C386.176 136.32 385.721 135.873 385.721 135.319C385.721 134.761 386.165 134.317 386.723 134.317Z" stroke="#549C60"/>
<path d="M386.723 133.802C387.559 133.802 388.239 134.482 388.239 135.318C388.239 136.154 387.559 136.834 386.723 136.834C385.887 136.834 385.207 136.154 385.207 135.318C385.207 134.482 385.887 133.802 386.723 133.802ZM386.723 133.845C385.918 133.845 385.25 134.514 385.25 135.318C385.25 136.117 385.9 136.791 386.723 136.791C387.541 136.791 388.196 136.136 388.196 135.318C388.196 134.5 387.541 133.845 386.723 133.845Z" stroke="#549C60"/>
<path d="M445.343 188.721H251.447V191.571H445.343V188.721Z" stroke="#549C60" stroke-width="0.75" stroke-linecap="round" stroke-linejoin="round"/>
<path d="M346.269 347.037H404.649C407.59 347.037 409.974 349.421 409.975 352.362V392.904C409.975 395.845 407.59 398.23 404.649 398.231H346.269C343.328 398.23 340.943 395.846 340.943 392.904V352.362C340.944 349.421 343.328 347.037 346.269 347.037Z" stroke="#549C60"/>
<path d="M404.649 346.537H346.269C343.052 346.537 340.443 349.145 340.443 352.363V392.905C340.443 396.122 343.052 398.73 346.269 398.73H404.649C407.866 398.73 410.475 396.122 410.475 392.905V352.363C410.475 349.145 407.866 346.537 404.649 346.537Z" stroke="#549C60" stroke-width="0.75" stroke-linecap="round" stroke-linejoin="round"/>
<path d="M381.096 354.42H369.821L364.176 364.181L369.821 373.941H381.096L386.727 364.181L381.096 354.42Z" stroke="#549C60" stroke-width="0.75" stroke-linecap="round" stroke-linejoin="round"/>
<path d="M371.459 371.09L367.469 364.18L371.459 357.271H379.44L383.43 364.18L379.44 371.09H371.459Z" stroke="#549C60" stroke-width="0.75" stroke-linecap="round" stroke-linejoin="round"/>
<path d="M323.328 275.909H211.67V340.073H323.328V275.909Z" stroke="#549C60" stroke-width="0.75" stroke-linecap="round" stroke-linejoin="round"/>
<path d="M211.67 275.908L267.506 263.952L323.328 275.908" stroke="#549C60" stroke-width="0.75" stroke-linecap="round" stroke-linejoin="round"/>
<path d="M269.175 280.177H215.953V335.79H269.175V280.177Z" stroke="#549C60" stroke-width="0.75" stroke-linecap="round" stroke-linejoin="round"/>
<path d="M264.895 319.44V284.445H220.223V319.44H264.895Z" stroke="#549C60" stroke-width="0.75" stroke-linecap="round" stroke-linejoin="round"/>
<path d="M252.158 305.05C255.598 305.05 258.387 302.262 258.387 298.821C258.387 295.381 255.598 292.593 252.158 292.593C248.718 292.593 245.93 295.381 245.93 298.821C245.93 302.262 248.718 305.05 252.158 305.05Z" stroke="#549C60" stroke-width="0.75" stroke-linecap="round" stroke-linejoin="round"/>
<path d="M220.223 302.075C220.223 302.075 238.005 297.626 251.45 302.7C264.894 307.775 264.894 311.682 264.894 311.682V319.44H220.223V302.075Z" stroke="#549C60" stroke-width="0.75" stroke-linecap="round" stroke-linejoin="round"/>
<path d="M246.194 323.944H220.223V325.793H246.194V323.944Z" stroke="#549C60" stroke-width="0.75" stroke-linecap="round" stroke-linejoin="round"/>
<path d="M241.745 327.531H220.223V329.381H241.745V327.531Z" stroke="#549C60" stroke-width="0.75" stroke-linecap="round" stroke-linejoin="round"/>
<path d="M318.949 280.177H273.568V335.79H318.949V280.177Z" stroke="#549C60" stroke-width="0.75" stroke-linecap="round" stroke-linejoin="round"/>
<path d="M312.513 284.445H280.897C279.392 284.445 278.172 285.665 278.172 287.17V306.065C278.172 307.57 279.392 308.79 280.897 308.79H312.513C314.018 308.79 315.238 307.57 315.238 306.065V287.17C315.238 285.665 314.018 284.445 312.513 284.445Z" stroke="#549C60" stroke-width="0.75" stroke-linecap="round" stroke-linejoin="round"/>
<path d="M312.486 287.017L296.706 294.748L280.926 287.017" stroke="#549C60" stroke-width="0.75" stroke-linecap="round" stroke-linejoin="round"/>
<path d="M315.238 314.893H278.172V316.743H315.238V314.893Z" stroke="#549C60" stroke-width="0.75" stroke-linecap="round" stroke-linejoin="round"/>
<path d="M315.238 318.48H278.172V320.33H315.238V318.48Z" stroke="#549C60" stroke-width="0.75" stroke-linecap="round" stroke-linejoin="round"/>
<path d="M308.87 322.067H278.172V323.917H308.87V322.067Z" stroke="#549C60" stroke-width="0.75" stroke-linecap="round" stroke-linejoin="round"/>
<path d="M299.611 328.449H278.172V330.298H299.611V328.449Z" stroke="#549C60" stroke-width="0.75" stroke-linecap="round" stroke-linejoin="round"/>
<path d="M8.13763 42.2261C4.77296 38.7961 3.09063 34.4678 3.09063 29.2411C3.09063 24.0144 4.77296 19.6861 8.13763 16.2561C11.5023 12.8261 15.7 11.1111 20.7306 11.1111C26.2186 11.1111 30.6776 13.1528 34.1076 17.2361C35.5776 19.0328 36.672 21.0744 37.3906 23.3611H34.2056C33.5523 21.6298 32.6213 20.0781 31.4126 18.7061C28.636 15.6028 25.0753 14.0511 20.7306 14.0511C16.5166 14.0511 13.054 15.4558 10.3426 18.2651C7.63129 21.0744 6.27563 24.7331 6.27563 29.2411C6.27563 33.7491 7.63129 37.4078 10.3426 40.2171C13.054 43.0264 16.5166 44.4311 20.7306 44.4311C25.1733 44.4311 28.7993 42.7651 31.6086 39.4331C32.8173 37.9958 33.7646 36.3134 34.4506 34.3861H37.6356C36.917 36.8034 35.79 38.9758 34.2546 40.9031C30.8573 45.2151 26.3493 47.3711 20.7306 47.3711C15.7 47.3711 11.5023 45.6561 8.13763 42.2261ZM40.0761 24.5861V21.8911H60.6561V24.5861H51.8361V46.3911H48.8961V24.5861H40.0761ZM64.8057 55.7011V21.8911H67.7457V26.7911H67.7947C68.3174 25.4844 69.4117 24.2594 71.0777 23.1161C72.7437 21.9728 74.7364 21.4011 77.0557 21.4011C80.3224 21.4011 83.0991 22.6261 85.3857 25.0761C87.6724 27.4934 88.8157 30.5151 88.8157 34.1411C88.8157 37.7671 87.6724 40.8051 85.3857 43.2551C83.0991 45.6724 80.3224 46.8811 77.0557 46.8811C74.7364 46.8811 72.7437 46.3094 71.0777 45.1661C69.4117 44.0228 68.3174 42.7978 67.7947 41.4911H67.7457V55.7011H64.8057ZM70.4407 26.9871C68.6441 28.8818 67.7457 31.2664 67.7457 34.1411C67.7457 37.0158 68.6441 39.4168 70.4407 41.3441C72.2701 43.2388 74.3934 44.1861 76.8107 44.1861C79.2934 44.1861 81.4167 43.2388 83.1807 41.3441C84.9774 39.4168 85.8757 37.0158 85.8757 34.1411C85.8757 31.2664 84.9774 28.8818 83.1807 26.9871C81.4167 25.0598 79.2934 24.0961 76.8107 24.0961C74.3934 24.0961 72.2701 25.0598 70.4407 26.9871ZM96.6672 43.2551C94.3806 40.8051 93.2372 37.7671 93.2372 34.1411C93.2372 30.5151 94.3806 27.4934 96.6672 25.0761C98.9539 22.6261 101.731 21.4011 104.997 21.4011C107.317 21.4011 109.277 21.9728 110.877 23.1161C112.478 24.2268 113.605 25.4518 114.258 26.7911H114.307V21.8911H117.247V46.3911H114.307V41.4911H114.258C113.605 42.8304 112.478 44.0718 110.877 45.2151C109.277 46.3258 107.317 46.8811 104.997 46.8811C101.731 46.8811 98.9539 45.6724 96.6672 43.2551ZM98.8232 26.9871C97.0592 28.8818 96.1772 31.2664 96.1772 34.1411C96.1772 37.0158 97.0592 39.4168 98.8232 41.3441C100.62 43.2388 102.76 44.1861 105.242 44.1861C107.66 44.1861 109.767 43.2388 111.563 41.3441C113.393 39.4168 114.307 37.0158 114.307 34.1411C114.307 31.2664 113.393 28.8818 111.563 26.9871C109.767 25.0598 107.66 24.0961 105.242 24.0961C102.76 24.0961 100.62 25.0598 98.8232 26.9871ZM125.099 46.3911V21.8911H128.039V32.6711H142.739V21.8911H145.679V46.3911H142.739V35.3661H128.039V46.3911H125.099ZM153.523 46.3911V21.8911H156.463V41.7361L156.414 42.2261H156.463L170.673 21.8911H174.103V46.3911H171.163V26.5461L171.212 26.0561H171.163L156.953 46.3911H153.523ZM181.946 46.3911V21.8911H184.886V43.6961H198.606V21.8911H201.546V43.6961H205.221V52.2711H202.281V46.3911H181.946ZM211.846 43.2551C209.559 40.8051 208.416 37.7671 208.416 34.1411C208.416 30.5151 209.559 27.4934 211.846 25.0761C214.133 22.6261 216.909 21.4011 220.176 21.4011C222.495 21.4011 224.455 21.9728 226.056 23.1161C227.657 24.2268 228.784 25.4518 229.437 26.7911H229.486V21.8911H232.426V46.3911H229.486V41.4911H229.437C228.784 42.8304 227.657 44.0718 226.056 45.2151C224.455 46.3258 222.495 46.8811 220.176 46.8811C216.909 46.8811 214.133 45.6724 211.846 43.2551ZM214.002 26.9871C212.238 28.8818 211.356 31.2664 211.356 34.1411C211.356 37.0158 212.238 39.4168 214.002 41.3441C215.799 43.2388 217.938 44.1861 220.421 44.1861C222.838 44.1861 224.945 43.2388 226.742 41.3441C228.571 39.4168 229.486 37.0158 229.486 34.1411C229.486 31.2664 228.571 28.8818 226.742 26.9871C224.945 25.0598 222.838 24.0961 220.421 24.0961C217.938 24.0961 215.799 25.0598 214.002 26.9871ZM254.011 46.3911V21.8911H265.526C267.845 21.8911 269.642 22.4791 270.916 23.6551C272.222 24.8311 272.876 26.3664 272.876 28.2611C272.876 30.7438 271.651 32.4424 269.201 33.3571V33.4061C269.299 33.4061 269.495 33.4551 269.789 33.5531C270.083 33.6511 270.458 33.8471 270.916 34.1411C271.406 34.4351 271.863 34.7944 272.288 35.2191C272.712 35.6438 273.072 36.2318 273.366 36.9831C273.692 37.7344 273.856 38.5838 273.856 39.5311C273.856 41.5564 273.121 43.2061 271.651 44.4801C270.213 45.7541 268.188 46.3911 265.575 46.3911H254.011ZM256.951 32.1811H265.526C266.963 32.1811 268.057 31.8544 268.809 31.2011C269.56 30.5478 269.936 29.6494 269.936 28.5061C269.936 25.8928 268.466 24.5861 265.526 24.5861H256.951V32.1811ZM256.951 43.6961H265.526C269.119 43.6961 270.916 42.2261 270.916 39.2861C270.916 36.3461 269.119 34.8761 265.526 34.8761H256.951V43.6961ZM293.728 55.7011V21.8911H296.668V26.7911H296.717C297.239 25.4844 298.334 24.2594 300 23.1161C301.666 21.9728 303.658 21.4011 305.978 21.4011C309.244 21.4011 312.021 22.6261 314.308 25.0761C316.594 27.4934 317.738 30.5151 317.738 34.1411C317.738 37.7671 316.594 40.8051 314.308 43.2551C312.021 45.6724 309.244 46.8811 305.978 46.8811C303.658 46.8811 301.666 46.3094 300 45.1661C298.334 44.0228 297.239 42.7978 296.717 41.4911H296.668V55.7011H293.728ZM299.363 26.9871C297.566 28.8818 296.668 31.2664 296.668 34.1411C296.668 37.0158 297.566 39.4168 299.363 41.3441C301.192 43.2388 303.315 44.1861 305.733 44.1861C308.215 44.1861 310.339 43.2388 312.103 41.3441C313.899 39.4168 314.798 37.0158 314.798 34.1411C314.798 31.2664 313.899 28.8818 312.103 26.9871C310.339 25.0598 308.215 24.0961 305.733 24.0961C303.315 24.0961 301.192 25.0598 299.363 26.9871ZM325.589 43.2551C323.302 40.8051 322.159 37.7671 322.159 34.1411C322.159 30.5151 323.302 27.4934 325.589 25.0761C327.876 22.6261 330.652 21.4011 333.919 21.4011C336.238 21.4011 338.198 21.9728 339.799 23.1161C341.4 24.2268 342.527 25.4518 343.18 26.7911H343.229V21.8911H346.169V46.3911H343.229V41.4911H343.18C342.527 42.8304 341.4 44.0718 339.799 45.2151C338.198 46.3258 336.238 46.8811 333.919 46.8811C330.652 46.8811 327.876 45.6724 325.589 43.2551ZM327.745 26.9871C325.981 28.8818 325.099 31.2664 325.099 34.1411C325.099 37.0158 325.981 39.4168 327.745 41.3441C329.542 43.2388 331.681 44.1861 334.164 44.1861C336.581 44.1861 338.688 43.2388 340.485 41.3441C342.314 39.4168 343.229 37.0158 343.229 34.1411C343.229 31.2664 342.314 28.8818 340.485 26.9871C338.688 25.0598 336.581 24.0961 334.164 24.0961C331.681 24.0961 329.542 25.0598 327.745 26.9871ZM351.326 39.2861H354.266C354.494 40.1681 354.935 40.9848 355.589 41.7361C357.091 43.3694 359.182 44.1861 361.861 44.1861C364.082 44.1861 365.781 43.7451 366.957 42.8631C368.133 41.9811 368.721 40.8704 368.721 39.5311C368.721 38.1918 368.149 37.1301 367.006 36.3461C365.895 35.5294 364.18 35.1211 361.861 35.1211H358.921V32.4261H361.861C365.944 32.4261 367.986 31.0378 367.986 28.2611C367.986 27.0851 367.463 26.1051 366.418 25.3211C365.372 24.5044 363.853 24.0961 361.861 24.0961C359.476 24.0961 357.614 24.7984 356.275 26.2031C355.654 26.8238 355.229 27.5098 355.001 28.2611H352.061C352.387 27.0198 352.975 25.8764 353.825 24.8311C355.719 22.5444 358.398 21.4011 361.861 21.4011C364.67 21.4011 366.875 22.0544 368.476 23.3611C370.109 24.6678 370.926 26.2194 370.926 28.0161C370.926 30.6294 369.456 32.4914 366.516 33.6021V33.6511C366.581 33.6511 366.777 33.7164 367.104 33.8471C367.43 33.9451 367.855 34.1411 368.378 34.4351C368.9 34.7291 369.407 35.1048 369.897 35.5621C370.387 35.9868 370.795 36.5748 371.122 37.3261C371.481 38.0774 371.661 38.8941 371.661 39.7761C371.661 41.8341 370.811 43.5328 369.113 44.8721C367.447 46.2114 365.029 46.8811 361.861 46.8811C357.875 46.8811 354.952 45.6234 353.09 43.1081C352.273 41.9648 351.685 40.6908 351.326 39.2861ZM377.803 55.7011V21.8911H380.743V26.7911H380.792C381.314 25.4844 382.409 24.2594 384.075 23.1161C385.741 21.9728 387.733 21.4011 390.053 21.4011C393.319 21.4011 396.096 22.6261 398.383 25.0761C400.669 27.4934 401.813 30.5151 401.813 34.1411C401.813 37.7671 400.669 40.8051 398.383 43.2551C396.096 45.6724 393.319 46.8811 390.053 46.8811C387.733 46.8811 385.741 46.3094 384.075 45.1661C382.409 44.0228 381.314 42.7978 380.792 41.4911H380.743V55.7011H377.803ZM383.438 26.9871C381.641 28.8818 380.743 31.2664 380.743 34.1411C380.743 37.0158 381.641 39.4168 383.438 41.3441C385.267 43.2388 387.39 44.1861 389.808 44.1861C392.29 44.1861 394.414 43.2388 396.178 41.3441C397.974 39.4168 398.873 37.0158 398.873 34.1411C398.873 31.2664 397.974 28.8818 396.178 26.9871C394.414 25.0598 392.29 24.0961 389.808 24.0961C387.39 24.0961 385.267 25.0598 383.438 26.9871ZM409.664 43.2551C407.378 40.8051 406.234 37.7671 406.234 34.1411C406.234 30.5151 407.378 27.4934 409.664 25.0761C411.951 22.6261 414.728 21.4011 417.994 21.4011C420.314 21.4011 422.274 21.9728 423.874 23.1161C425.475 24.2268 426.602 25.4518 427.255 26.7911H427.304V21.8911H430.244V46.3911H427.304V41.4911H427.255C426.602 42.8304 425.475 44.0718 423.874 45.2151C422.274 46.3258 420.314 46.8811 417.994 46.8811C414.728 46.8811 411.951 45.6724 409.664 43.2551ZM411.82 26.9871C410.056 28.8818 409.174 31.2664 409.174 34.1411C409.174 37.0158 410.056 39.4168 411.82 41.3441C413.617 43.2388 415.757 44.1861 418.239 44.1861C420.657 44.1861 422.764 43.2388 424.56 41.3441C426.39 39.4168 427.304 37.0158 427.304 34.1411C427.304 31.2664 426.39 28.8818 424.56 26.9871C422.764 25.0598 420.657 24.0961 418.239 24.0961C415.757 24.0961 413.617 25.0598 411.82 26.9871ZM436.626 32.4261C436.626 25.3048 437.916 20.1434 440.497 16.9421C443.077 13.7081 446.85 12.0911 451.816 12.0911H457.941V14.7861H452.061C448.173 14.7861 445.201 15.8968 443.143 18.1181C441.085 20.3068 439.876 23.7694 439.517 28.5061H439.566C440.121 27.6241 440.807 26.8564 441.624 26.2031C443.518 24.6351 445.854 23.8511 448.631 23.8511C451.701 23.8511 454.347 24.9781 456.569 27.2321C458.79 29.4861 459.901 32.1974 459.901 35.3661C459.901 38.5674 458.757 41.2951 456.471 43.5491C454.217 45.7704 451.44 46.8811 448.141 46.8811C444.58 46.8811 441.771 45.6724 439.713 43.2551C437.655 40.8051 436.626 37.1954 436.626 32.4261ZM439.566 34.7781C439.566 37.5874 440.366 39.8578 441.967 41.5891C443.6 43.3204 445.658 44.1861 448.141 44.1861C450.591 44.1861 452.665 43.3204 454.364 41.5891C456.095 39.8578 456.961 37.7508 456.961 35.2681C456.961 32.8508 456.095 30.7928 454.364 29.0941C452.665 27.3954 450.591 26.5461 448.141 26.5461C445.723 26.5461 443.682 27.3464 442.016 28.9471C440.382 30.5478 439.566 32.4914 439.566 34.7781ZM467.377 43.2551C464.992 40.8378 463.8 37.7998 463.8 34.1411C463.8 30.4824 464.992 27.4444 467.377 25.0271C469.761 22.6098 472.734 21.4011 476.295 21.4011C479.855 21.4011 482.828 22.6098 485.213 25.0271C487.597 27.4444 488.79 30.4824 488.79 34.1411C488.79 37.7998 487.597 40.8378 485.213 43.2551C482.828 45.6724 479.855 46.8811 476.295 46.8811C472.734 46.8811 469.761 45.6724 467.377 43.2551ZM469.484 26.9381C467.654 28.8328 466.74 31.2338 466.74 34.1411C466.74 37.0484 467.654 39.4494 469.484 41.3441C471.313 43.2388 473.583 44.1861 476.295 44.1861C479.006 44.1861 481.276 43.2388 483.106 41.3441C484.935 39.4494 485.85 37.0484 485.85 34.1411C485.85 31.2338 484.935 28.8328 483.106 26.9381C481.276 25.0434 479.006 24.0961 476.295 24.0961C473.583 24.0961 471.313 25.0434 469.484 26.9381ZM491.221 24.5861V21.8911H511.801V24.5861H502.981V46.3911H500.041V24.5861H491.221ZM515.95 46.3911V21.8911H518.89V32.1811H524.77L532.855 21.8911H536.285L527.22 33.6511L537.02 46.3911H533.59L524.77 34.8761H518.89V46.3911H515.95ZM542.024 43.2551C539.672 40.8378 538.496 37.7998 538.496 34.1411C538.496 30.4824 539.672 27.4444 542.024 25.0271C544.376 22.6098 547.283 21.4011 550.746 21.4011C554.176 21.4011 557.067 22.6098 559.419 25.0271C561.804 27.4118 562.996 30.3681 562.996 33.8961V35.1211H541.436C541.567 37.7018 542.514 39.8578 544.278 41.5891C546.042 43.3204 548.198 44.1861 550.746 44.1861C553.555 44.1861 555.858 43.2878 557.655 41.4911C558.504 40.7071 559.141 39.8088 559.566 38.7961H562.506C561.918 40.3314 561.085 41.6871 560.007 42.8631C557.59 45.5418 554.503 46.8811 550.746 46.8811C547.283 46.8811 544.376 45.6724 542.024 43.2551ZM541.436 32.4261H559.811C559.55 30.0414 558.57 28.0651 556.871 26.4971C555.205 24.8964 553.163 24.0961 550.746 24.0961C548.329 24.0961 546.271 24.8801 544.572 26.4481C542.873 28.0161 541.828 30.0088 541.436 32.4261Z" fill="white"/>
</svg>
