<svg width="416" height="64" viewBox="0 0 416 64" fill="none" xmlns="http://www.w3.org/2000/svg">
<path d="M354.861 42.3996H369.661C369.875 43.8396 370.408 45.1463 371.261 46.3196C372.115 47.4929 373.235 48.4796 374.621 49.2796C376.061 50.0796 377.741 50.7196 379.661 51.1996C381.635 51.6263 383.795 51.8396 386.141 51.8396C388.381 51.8396 390.408 51.6796 392.221 51.3596C394.035 51.0396 395.555 50.5596 396.781 49.9196C398.061 49.2796 399.021 48.5329 399.661 47.6796C400.355 46.7729 400.701 45.7329 400.701 44.5596C400.701 43.6529 400.541 42.8796 400.221 42.2396C399.901 41.5463 399.315 40.9596 398.461 40.4796C397.661 39.9463 396.568 39.5196 395.181 39.1996C393.795 38.8263 392.088 38.5329 390.061 38.3196L378.381 37.0396C374.381 36.6129 370.941 35.9463 368.061 35.0396C365.235 34.1329 362.888 32.9596 361.021 31.5196C359.208 30.0796 357.875 28.3729 357.021 26.3996C356.168 24.4263 355.741 22.1596 355.741 19.5996C355.741 16.6129 356.408 13.9463 357.741 11.5996C359.075 9.25294 360.995 7.2796 363.501 5.6796C366.008 4.0796 368.995 2.85294 372.461 1.9996C375.981 1.14627 379.901 0.719604 384.221 0.719604C388.435 0.719604 392.301 1.1996 395.821 2.15961C399.395 3.06627 402.488 4.39961 405.101 6.15961C407.715 7.86627 409.768 9.91961 411.261 12.3196C412.808 14.7196 413.688 17.3863 413.901 20.3196H399.021C398.861 19.0396 398.408 17.9196 397.661 16.9596C396.915 15.9463 395.875 15.0929 394.541 14.3996C393.261 13.7063 391.715 13.1729 389.901 12.7996C388.141 12.3729 386.141 12.1596 383.901 12.1596C381.821 12.1596 379.955 12.3196 378.301 12.6396C376.648 12.9596 375.235 13.4129 374.061 13.9996C372.888 14.5863 371.981 15.3063 371.341 16.1596C370.755 17.0129 370.461 17.9729 370.461 19.0396C370.461 20.6929 371.155 21.9996 372.541 22.9596C373.981 23.8663 376.568 24.5596 380.301 25.0396L392.701 26.3996C396.861 26.8263 400.381 27.4663 403.261 28.3196C406.141 29.1729 408.488 30.2663 410.301 31.5996C412.115 32.8796 413.421 34.4529 414.221 36.3196C415.021 38.1863 415.421 40.3996 415.421 42.9596C415.421 45.9996 414.701 48.7729 413.261 51.2796C411.875 53.7863 409.875 55.9196 407.261 57.6796C404.701 59.4396 401.608 60.8263 397.981 61.8396C394.408 62.7996 390.381 63.2796 385.901 63.2796C381.368 63.2796 377.208 62.7729 373.421 61.7596C369.688 60.7463 366.461 59.3329 363.741 57.5196C361.021 55.6529 358.888 53.4663 357.341 50.9596C355.795 48.3996 354.968 45.5463 354.861 42.3996Z" fill="#61B76D"/>
<path d="M301.816 1.99963V35.5196C301.816 37.7596 302.136 39.813 302.776 41.6796C303.469 43.493 304.456 45.0396 305.736 46.3196C307.016 47.5996 308.589 48.5863 310.456 49.2796C312.376 49.9196 314.562 50.2396 317.016 50.2396C319.416 50.2396 321.549 49.9196 323.416 49.2796C325.336 48.5863 326.936 47.5996 328.216 46.3196C329.496 45.0396 330.456 43.493 331.096 41.6796C331.789 39.813 332.136 37.7596 332.136 35.5196V1.99963H346.696V36.2396C346.696 40.2396 345.976 43.9196 344.536 47.2796C343.096 50.5863 341.069 53.4396 338.456 55.8396C335.842 58.1863 332.722 60.0263 329.096 61.3596C325.469 62.6396 321.416 63.2796 316.936 63.2796C312.509 63.2796 308.456 62.6396 304.776 61.3596C301.149 60.0263 298.029 58.1863 295.416 55.8396C292.856 53.4396 290.829 50.5863 289.336 47.2796C287.896 43.9196 287.176 40.2396 287.176 36.2396V1.99963H301.816Z" fill="#61B76D"/>
<path d="M231.183 39.5996V28.4796H253.903C256.783 28.4796 259.05 27.813 260.703 26.4796C262.41 25.1463 263.263 23.2796 263.263 20.8796C263.263 18.4796 262.41 16.613 260.703 15.2796C259.05 13.9463 256.783 13.2796 253.903 13.2796H229.103L235.663 5.99963V61.9996H221.023V1.99963H255.743C259.05 1.99963 262.063 2.45297 264.783 3.35964C267.557 4.2663 269.93 5.5463 271.903 7.19963C273.877 8.85297 275.397 10.853 276.463 13.1996C277.53 15.493 278.063 18.053 278.063 20.8796C278.063 23.653 277.53 26.1863 276.463 28.4796C275.397 30.773 273.877 32.7463 271.903 34.3996C269.93 36.053 267.557 37.333 264.783 38.2396C262.063 39.1463 259.05 39.5996 255.743 39.5996H231.183ZM262.863 61.9996L241.103 33.9196H257.663L279.903 61.9996H262.863Z" fill="#61B76D"/>
<path d="M190.616 32.4796L191.896 29.5996C195.416 29.7063 198.456 30.1596 201.016 30.9596C203.576 31.7063 205.683 32.773 207.336 34.1596C208.989 35.5463 210.216 37.1996 211.016 39.1196C211.869 40.9863 212.296 43.0396 212.296 45.2796C212.296 47.6796 211.869 49.9196 211.016 51.9996C210.216 54.0263 208.963 55.7863 207.256 57.2796C205.603 58.773 203.523 59.9463 201.016 60.7996C198.509 61.5996 195.603 61.9996 192.296 61.9996H149.496V1.99963H190.776C196.376 1.99963 200.696 3.3063 203.736 5.91964C206.776 8.47963 208.296 12.0263 208.296 16.5596C208.296 18.4796 207.976 20.3196 207.336 22.0796C206.749 23.8396 205.736 25.4396 204.296 26.8796C202.909 28.3196 201.096 29.5463 198.856 30.5596C196.616 31.573 193.869 32.213 190.616 32.4796ZM163.896 5.59964V58.3996L158.376 51.4396H189.016C191.683 51.4396 193.763 50.7996 195.256 49.5196C196.803 48.2396 197.576 46.4263 197.576 44.0796C197.576 41.733 196.723 39.8663 195.016 38.4796C193.309 37.0396 190.803 36.3196 187.496 36.3196H162.456V26.0796H185.656C186.829 26.0796 187.896 25.9196 188.856 25.5996C189.816 25.2263 190.643 24.7463 191.336 24.1596C192.029 23.5196 192.563 22.7463 192.936 21.8396C193.363 20.933 193.576 19.9196 193.576 18.7996C193.576 16.933 192.936 15.4396 191.656 14.3196C190.376 13.1463 188.536 12.5596 186.136 12.5596H158.376L163.896 5.59964Z" fill="#61B76D"/>
<path d="M94.0234 39.7996H121.023V46.6996H94.0234V39.7996ZM97.6734 27.5996V58.8996L93.8234 54.4996H122.673V61.9996H88.5234V24.4996H122.423V31.9996H93.8234L97.6734 27.5996Z" fill="#61B76D"/>
<path d="M43.2852 61.9996V24.4996H52.4352V61.9996H43.2852ZM73.1852 61.9996V24.4996H82.2852V61.9996H73.1852ZM48.3352 46.9996V38.9996H77.0852V46.9996H48.3352Z" fill="#61B76D"/>
<path d="M14.9031 61.9996V28.5496H24.0031V61.9996H14.9031ZM0.203125 32.5996V24.4996H38.7031V32.5996H0.203125Z" fill="#61B76D"/>
</svg>
