<svg width="50" height="50" viewBox="0 0 50 50" fill="none" xmlns="http://www.w3.org/2000/svg">
<path d="M17.4708 5.40259C19.8623 5.40259 21.9261 6.80296 22.8887 8.82815H19.0079C18.558 8.55857 18.0334 8.40068 17.4708 8.40068H8.36671C6.7109 8.40068 5.36861 9.74298 5.36861 11.3988V12.3035C5.36861 13.9593 6.7109 15.3016 8.36671 15.3016H17.4708C18.0334 15.3016 18.558 15.1437 19.0079 14.8741H22.8887C21.9261 16.8993 19.8623 18.2997 17.4708 18.2997H8.36671C5.0551 18.2997 2.37052 15.6151 2.37052 12.3035V11.3988C2.37052 8.08717 5.0551 5.40259 8.36671 5.40259H17.4708Z" fill="white"/>
<path d="M29.9535 32.5567C35.2709 33.9806 39.1864 38.8309 39.1864 44.5974H10.3034C10.3034 39.0822 13.8855 34.4047 18.8497 32.7617C20.3488 33.9248 22.2295 34.6194 24.2735 34.6194C26.4353 34.6193 28.4155 33.8436 29.9535 32.5567Z" fill="white"/>
<path d="M30.2631 26.0518C30.2631 29.2967 27.6326 31.9272 24.3877 31.9272C21.1428 31.9272 18.5123 29.2967 18.5123 26.0518C18.5123 22.8069 21.1428 20.1764 24.3877 20.1764C27.6326 20.1764 30.2631 22.8069 30.2631 26.0518Z" fill="white"/>
<path d="M6.51915 34.3749C7.56806 35.1887 8.88492 35.6749 10.3151 35.6749C11.4207 35.6747 12.457 35.3818 13.3556 34.8741C11.0455 36.8492 9.38749 39.5663 8.75015 42.6563H0.539062C0.539062 38.7972 3.04564 35.5247 6.51915 34.3749Z" fill="white"/>
<path d="M10.3941 25.568C12.6645 25.568 14.506 27.4084 14.5063 29.6787C14.5063 31.9492 12.6647 33.7908 10.3941 33.7908C8.12366 33.7907 6.28346 31.9492 6.28346 29.6787C6.28377 27.4084 8.12385 25.5681 10.3941 25.568Z" fill="white"/>
<path d="M42.9999 34.2314C46.7203 35.228 49.4601 38.6215 49.4601 42.6563H40.5639C39.9193 39.5313 38.2311 36.79 35.8794 34.8097C36.8021 35.3556 37.8757 35.6749 39.0254 35.6749C40.5378 35.6747 41.9238 35.1318 42.9999 34.2314Z" fill="white"/>
<path d="M39.1044 25.568C41.3748 25.568 43.2162 27.4084 43.2165 29.6787C43.2165 31.9492 41.375 33.7908 39.1044 33.7908C36.8339 33.7907 34.9937 31.9492 34.9937 29.6787C34.994 27.4084 36.8341 25.5681 39.1044 25.568Z" fill="white"/>
<path d="M15.0612 11.8509C15.0612 11.0094 15.7434 10.3272 16.5849 10.3272H31.261C32.1026 10.3272 32.7848 11.0094 32.7848 11.8509C32.7848 12.6925 32.1026 13.3747 31.261 13.3747H16.5849C15.7434 13.3747 15.0612 12.6925 15.0612 11.8509Z" fill="white"/>
<path d="M39.3592 5.6456C42.6708 5.6456 45.3554 8.33018 45.3554 11.6418V12.5465C45.3554 15.8581 42.6708 18.5427 39.3592 18.5427H30.2551C27.769 18.5427 25.6362 17.0296 24.7274 14.8741H28.3667C28.8823 15.2929 29.5391 15.5446 30.2551 15.5446H39.3592C41.015 15.5446 42.3573 14.2023 42.3573 12.5465V11.6418C42.3573 9.98599 41.015 8.64369 39.3592 8.64369H30.2551C29.8937 8.64369 29.5484 8.71092 29.2275 8.82815H24.9602C25.9683 6.93498 27.9606 5.6456 30.2551 5.6456H39.3592Z" fill="white"/>
</svg>
