<svg width="50" height="50" viewBox="0 0 50 50" fill="none" xmlns="http://www.w3.org/2000/svg">
<path d="M18.1543 34.291L19.9932 33.2148C19.9894 33.2823 19.9879 33.3504 19.9883 33.4189L20.0039 35.8994C20.0135 37.4032 21.0444 38.6616 22.4346 39.0215L18.1348 41.7334L0.800781 32.0068L7.44141 28.2803L18.1543 34.291Z" fill="white"/>
<path d="M18.1543 23.5625L27.0986 18.335L31.4043 21.1211C31.1852 21.5564 31.0591 22.0466 31.0576 22.5664L30.249 22.9258L30.0664 22.7568L29.9434 22.6484C28.6517 21.5699 26.7337 21.6555 25.5439 22.8711L23.8271 24.626C22.7513 25.7252 22.6106 27.4024 23.417 28.6533L23.1816 29.0361L18.1338 31.9863L0.800781 22.2607L8.31641 18.042L18.1543 23.5625Z" fill="white"/>
<path d="M34.7764 11.5322L18.1338 21.2578L0.800781 11.5322L18.1338 1.80566L34.7764 11.5322Z" fill="white"/>
<path fill-rule="evenodd" clip-rule="evenodd" d="M37.1572 21.2588C37.8453 21.259 38.4032 21.8168 38.4033 22.5049V23.1582C38.4035 23.6714 38.7182 24.1317 39.1963 24.3184L41.1221 25.0703C41.5032 25.2191 41.9333 25.1712 42.2725 24.9424L43.1123 24.376C43.6168 24.0357 44.2936 24.1097 44.7129 24.5508L46.2793 26.1992C46.7197 26.6627 46.7378 27.384 46.3213 27.8691L45.6885 28.6064C45.3915 28.9522 45.3066 29.433 45.4678 29.8594L46.1221 31.5908C46.3053 32.0756 46.7698 32.3965 47.2881 32.3965H47.9531C48.6414 32.3965 49.1992 32.9543 49.1992 33.6426V36.123C49.1992 36.8113 48.6414 37.3691 47.9531 37.3691H47.25C46.7509 37.3691 46.2996 37.6671 46.1035 38.126L45.3008 40.0068C45.1246 40.3921 44.8409 40.862 45.0693 41.2188L45.5879 42.0293C45.9188 42.5462 45.8246 43.2268 45.3652 43.6338L43.6953 45.1123C43.253 45.504 42.5963 45.5313 42.123 45.1777C41.7597 44.8382 40.7613 44.3978 40.3057 44.5967L38.6191 45.3184C38.1579 45.5157 37.8592 45.97 37.8623 46.4717L37.8652 46.9248C37.8695 47.6131 37.3152 48.1744 36.627 48.1787L34.124 48.1943C33.4358 48.1986 32.8744 47.6443 32.8701 46.9561L32.8662 46.3037C32.863 45.7903 32.5448 45.3311 32.0654 45.1475L30.1348 44.4082C29.7527 44.2618 29.3231 44.312 28.9854 44.543L28.1494 45.1152C27.6471 45.4587 26.9699 45.3886 26.5479 44.9502L24.9707 43.3115C24.5273 42.8508 24.5045 42.1293 24.918 41.6416L25.5469 40.9004C25.8417 40.5527 25.9226 40.0719 25.7588 39.6465L25.0938 37.9189C24.9075 37.4355 24.4419 37.118 23.9238 37.1211L23.2578 37.125C22.5696 37.1293 22.0083 36.5749 22.0039 35.8867L21.9883 33.4062C21.984 32.7181 22.5384 32.1567 23.2266 32.1523L23.9307 32.1475C24.4298 32.1443 24.8791 31.844 25.0723 31.3838L25.8633 29.498C26.0527 29.0465 25.9604 28.5256 25.627 28.167L25.2344 27.7451C24.7813 27.2578 24.7914 26.5 25.2568 26.0244L26.9736 24.2705C27.4451 23.7888 28.2146 23.7694 28.71 24.2266L29.2568 24.7314C29.6222 25.0687 30.1539 25.1568 30.6084 24.9551L32.3203 24.1953C32.7732 23.9943 33.0636 23.5434 33.0605 23.0479L33.0576 22.584C33.0535 21.896 33.608 21.3346 34.2959 21.3301L37.1572 21.2588ZM35.5928 28.4053C32.1017 28.4054 29.2716 31.2355 29.2715 34.7266C29.2715 38.2178 32.1016 41.0487 35.5928 41.0488C39.0841 41.0488 41.915 38.2178 41.915 34.7266C41.9149 31.2354 39.084 28.4053 35.5928 28.4053Z" fill="white"/>
</svg>
