<svg width="50" height="50" viewBox="0 0 50 50" fill="none" xmlns="http://www.w3.org/2000/svg">
<path d="M26.1667 1.07705L25.3592 0.412831C25.1571 0.246612 24.8649 0.249438 24.6661 0.419534L23.8004 1.1602C23.1885 1.68369 22.9191 2.50444 23.1018 3.28871L23.2954 4.11964C23.3523 4.36378 23.57 4.53653 23.8206 4.53653H26.089C26.3223 4.53653 26.5293 4.38638 26.6016 4.16449L26.8471 3.41179C27.1225 2.56768 26.8524 1.64109 26.1667 1.07705Z" fill="white"/>
<path d="M29.4517 30.9523L32.8068 33.1235C33.5649 33.5499 33.9849 34.3967 33.8657 35.2583C33.7225 36.2938 33.3877 36.627 34.234 37.175C33.6594 38.1742 34.5377 40.5479 35.36 40.9061L35.4809 40.9439C35.4408 40.9365 35.4005 40.9237 35.36 40.9061L33.4526 40.3089C32.014 40.0124 31.0774 38.619 31.3461 37.175L31.4987 36.3544C31.5519 36.0687 31.3692 35.7924 31.0856 35.7293L28.5846 35.1736C28.4078 35.1343 28.2212 35.1847 28.0987 35.3181C27.5022 35.968 27.3927 36.4951 27.2164 37.3438L27.2136 37.3569C27.2064 37.3915 27.2022 37.4259 27.2036 37.4612C27.257 38.7745 29.703 41.6607 31.9142 42.2444C32.0914 42.2912 31.5114 43.9567 31.0969 45.1644C30.9789 45.5081 30.5621 45.6435 30.266 45.4329L26.6075 42.8304C26.5614 42.7976 26.5024 42.8487 26.5283 42.899L28.5491 46.8222C28.67 47.0568 28.6033 47.3445 28.3914 47.5019L25.4187 49.6105C25.2371 49.7393 24.995 49.7433 24.8093 49.6204L21.6064 47.5019C21.3945 47.3445 21.3278 47.0568 21.4486 46.8222L23.4695 42.899C23.4953 42.8487 23.4363 42.7976 23.3903 42.8304L19.7317 45.4329C19.4357 45.6435 19.0189 45.5081 18.9009 45.1644C18.4864 43.9567 17.9063 42.2912 18.0835 42.2444C20.2948 41.6607 22.7408 38.7745 22.7942 37.4612C22.7956 37.4259 22.7913 37.3915 22.7841 37.3569L22.7814 37.3438C22.6051 36.4951 22.4955 35.968 21.8991 35.3181C21.7766 35.1847 21.5899 35.1343 21.4131 35.1736L18.9122 35.7293C18.6286 35.7924 18.4459 36.0687 18.499 36.3544L18.6517 37.175C18.9204 38.619 17.9838 40.0124 16.5452 40.3089L13.4472 40.9474C13.2599 40.986 13.0662 40.9225 12.938 40.7806L11.9981 39.739C11.7394 39.4524 11.8613 39.0022 12.2261 38.8757L14.378 38.1206C15.5706 37.7071 16.305 36.5087 16.1321 35.2583C16.0129 34.3967 16.4329 33.5499 17.191 33.1235L20.7491 31.0491C21.0083 30.898 21.3316 30.9103 21.5786 31.0808L25.0768 33.4952L28.579 30.974C28.8377 30.7878 29.1841 30.7792 29.4517 30.9523Z" fill="white"/>
<path d="M25.2374 31.3644L29.3625 28.307C29.4642 28.2317 29.5241 28.1127 29.5241 27.9862V22.4058C29.5241 22.1853 29.3453 22.0065 29.1248 22.0065H20.8442C20.6237 22.0065 20.4751 22.1853 20.4751 22.4058V27.9862C20.4751 28.1127 20.535 28.2317 20.6367 28.307L24.7618 31.3644C24.9031 31.4691 25.0961 31.4691 25.2374 31.3644Z" fill="white"/>
<path d="M32.4988 8.56428H28.6897C28.6602 8.43142 28.2885 7.78522 27.9412 7.18936C27.883 7.08952 27.8239 6.98886 27.7652 6.88927C27.5333 6.49632 27.8147 5.99661 28.271 5.99661H32.4718C32.8905 5.99661 33.1736 6.42374 33.0104 6.80937L32.4988 8.56428Z" fill="white"/>
<path d="M28.9136 9.87545C25.3838 11.7621 25.3693 20.157 25.3692 20.6438H30.6273C29.8484 16.1646 30.9848 13.6501 31.9941 13.159C32.6216 13.5682 34.4313 13.8921 35.0602 14.0747C35.4497 11.8838 33.4602 10.3623 32.4256 9.87545H28.9136Z" fill="white"/>
<path d="M35.5307 19.8835C36.17 22.7798 32.8319 23.6253 31.1101 22.2291V28.7731C34.761 30.5987 42.1038 32.6634 44.3797 28.2535C42.2711 27.8739 40.954 27.2662 39.4181 25.5086C43.7917 26.9527 46.3636 24.3909 47.1028 22.9295C44.4786 22.7521 43.3811 22.2557 41.4213 21.322C45.7949 21.1157 47.3697 17.4539 47.6104 15.6487L42.4307 17.2405C47.3406 14.0222 47.1584 8.91962 46.4535 6.77064L35.9198 18.1258C35.4877 18.5916 35.3937 19.2631 35.5307 19.8835Z" fill="white"/>
<path d="M17.5002 8.56428H21.3093C21.3388 8.43142 21.7105 7.78522 22.0578 7.18936C22.116 7.08952 22.1751 6.98886 22.2339 6.88927C22.4658 6.49632 22.1843 5.99661 21.728 5.99661H17.5272C17.1085 5.99661 16.8254 6.42374 16.9886 6.80937L17.5002 8.56428Z" fill="white"/>
<path d="M21.0855 9.87545C24.6152 11.7621 24.6298 20.157 24.6299 20.6438H19.3717C20.1507 16.1646 19.0143 13.6501 18.0049 13.159C17.3775 13.5682 15.5677 13.8921 14.9388 14.0747C14.5494 11.8838 16.5388 10.3623 17.5734 9.87545H21.0855Z" fill="white"/>
<path d="M14.4683 19.8835C13.829 22.7798 17.1671 23.6253 18.8889 22.2291V28.7731C15.238 30.5987 7.89527 32.6634 5.61934 28.2535C7.72794 27.8739 9.04501 27.2662 10.581 25.5086C6.20737 26.9527 3.63548 24.3909 2.89624 22.9295C5.52041 22.7521 6.6179 22.2557 8.57772 21.322C4.20413 21.1157 2.62936 17.4539 2.38867 15.6487L7.56837 17.2405C2.6584 14.0222 2.84063 8.91962 3.54549 6.77064L14.0792 18.1258C14.5113 18.5916 14.6053 19.2631 14.4683 19.8835Z" fill="white"/>
<path d="M11.2064 36.2901C11.2064 37.2722 10.4102 38.0684 9.42802 38.0684C8.44585 38.0684 7.64965 37.2722 7.64965 36.2901C7.64965 35.3079 8.44585 34.5117 9.42802 34.5117C10.4102 34.5117 11.2064 35.3079 11.2064 36.2901Z" fill="white"/>
<path d="M41.0703 38.0684C41.0703 39.7143 39.736 41.0485 38.0902 41.0485C36.4443 41.0485 35.11 39.7143 35.11 38.0684C35.11 36.4225 36.4443 35.0883 38.0902 35.0883C39.736 35.0883 41.0703 36.4225 41.0703 38.0684Z" fill="white"/>
</svg>
