<svg width="50" height="50" viewBox="0 0 50 50" fill="none" xmlns="http://www.w3.org/2000/svg">
<path d="M5.71107 35.4986L8.20601 35.8609L6.40079 37.6207L6.82657 40.1051L4.59557 38.9321L2.36381 40.1051L2.7896 37.6207L0.984375 35.8609L3.47931 35.4986L4.59557 33.2374L5.71107 35.4986Z" fill="white"/>
<path d="M22.8981 21.6649L27.1015 22.276L24.0597 25.2406L24.7774 29.4273L21.018 27.4512L17.2586 29.4273L17.9763 25.2406L14.9346 22.276L19.1379 21.6649L21.018 17.8563L22.8981 21.6649Z" fill="white"/>
<path d="M43.3265 12.0973L49.0137 12.9239L44.8988 16.9352L45.8699 22.5997L40.7832 19.9255L35.6965 22.5997L36.6683 16.9352L32.5527 12.9239L38.2398 12.0973L40.7832 6.94409L43.3265 12.0973Z" fill="white"/>
<path d="M28.3995 37.7999C26.1454 41.3594 19.55 42.6447 16.5341 42.8425C27.6871 44.0291 32.453 39.9752 33.4418 37.7999H38.0395V28.7525L22.7633 37.0581L28.3995 37.7999Z" fill="white"/>
</svg>
