<svg width="50" height="50" viewBox="0 0 50 50" fill="none" xmlns="http://www.w3.org/2000/svg">
<path d="M23.4135 23.2052C23.4136 20.9982 25.2028 19.2089 27.4098 19.2089H40.1949C40.9303 19.2086 41.527 18.6123 41.527 17.8768V11.7067C41.527 11.0169 41.0021 10.4491 40.3302 10.3811L40.1949 10.3746H37.8207V7.7104H40.1949L40.4004 7.7156C42.5117 7.82286 44.1912 9.56873 44.1912 11.7067V17.8768C44.1912 20.0837 42.4017 21.8728 40.1949 21.8731H27.4098C26.6742 21.8731 26.0778 22.4696 26.0777 23.2052V30.0052H23.4135V23.2052Z" fill="white"/>
<path d="M28.8161 45.7682V31.3373C28.8161 30.6016 28.2196 30.0052 27.4839 30.0052H22.0072C21.2715 30.0052 20.6751 30.6016 20.6751 31.3373V45.7682C20.6751 46.5039 21.2715 47.1003 22.0072 47.1003H27.4839C28.2196 47.1003 28.8161 46.5039 28.8161 45.7682Z" fill="white"/>
<path d="M36.4899 2.89941C37.2253 2.89977 37.8207 3.49603 37.8207 4.23152V14.0206C37.8207 14.7563 37.2243 15.3528 36.4886 15.3528H18.0526C18.0295 15.2544 17.9961 15.1582 17.955 15.0666C17.1243 13.2164 16.5631 10.3156 20.2659 9.63546C23.5252 9.0365 24.1336 5.84666 23.9781 3.92321C23.9349 3.39073 23.5135 3.00676 22.9998 2.91893L22.7748 2.89941H36.4899Z" fill="white"/>
<path d="M5.80859 4.23151L5.80859 15.3533C5.80859 24.1943 15.1953 24.3987 15.423 15.6785C15.4285 15.4688 15.376 15.2576 15.2901 15.0662C14.4594 13.2161 13.9153 9.84629 17.6181 9.16619C20.8779 8.56744 21.4689 5.84696 21.3133 3.9234C21.2641 3.31468 20.7204 2.89941 20.1097 2.89941L7.1407 2.89941C6.405 2.89941 5.80859 3.49582 5.80859 4.23151Z" fill="white"/>
</svg>
